<svg xmlns="http://www.w3.org/2000/svg" xmlns:xlink="http://www.w3.org/1999/xlink" width="371" zoomAndPan="magnify" viewBox="0 0 278.25 400.499996" height="534" preserveAspectRatio="xMidYMid meet" version="1.0"><defs><g/><clipPath id="5508e4edaf"><path d="M 0 0.289062 L 277.109375 0.289062 L 277.109375 399.710938 L 0 399.710938 Z M 0 0.289062 " clip-rule="nonzero"/></clipPath><clipPath id="b754c15e55"><path d="M 14.210938 0.289062 L 262.894531 0.289062 C 266.664062 0.289062 270.28125 1.785156 272.945312 4.453125 C 275.609375 7.117188 277.109375 10.730469 277.109375 14.5 L 277.109375 385.371094 C 277.109375 389.140625 275.609375 392.753906 272.945312 395.417969 C 270.28125 398.085938 266.664062 399.582031 262.894531 399.582031 L 14.210938 399.582031 C 10.441406 399.582031 6.828125 398.085938 4.164062 395.417969 C 1.496094 392.753906 0 389.140625 0 385.371094 L 0 14.5 C 0 10.730469 1.496094 7.117188 4.164062 4.453125 C 6.828125 1.785156 10.441406 0.289062 14.210938 0.289062 Z M 14.210938 0.289062 " clip-rule="nonzero"/></clipPath><clipPath id="a8698433f2"><path d="M 0 0.289062 L 276.753906 0.289062 L 276.753906 399.710938 L 0 399.710938 Z M 0 0.289062 " clip-rule="nonzero"/></clipPath><clipPath id="a86a9f2dc1"><path d="M 14.214844 0.289062 L 262.890625 0.289062 C 266.660156 0.289062 270.273438 1.785156 272.941406 4.453125 C 275.605469 7.117188 277.101562 10.730469 277.101562 14.5 L 277.101562 385.359375 C 277.101562 389.128906 275.605469 392.746094 272.941406 395.410156 C 270.273438 398.074219 266.660156 399.570312 262.890625 399.570312 L 14.214844 399.570312 C 10.445312 399.570312 6.828125 398.074219 4.164062 395.410156 C 1.5 392.746094 0 389.128906 0 385.359375 L 0 14.5 C 0 10.730469 1.5 7.117188 4.164062 4.453125 C 6.828125 1.785156 10.445312 0.289062 14.214844 0.289062 Z M 14.214844 0.289062 " clip-rule="nonzero"/></clipPath><clipPath id="436cfdb5ea"><path d="M 109 63.414062 L 168 63.414062 L 168 120 L 109 120 Z M 109 63.414062 " clip-rule="nonzero"/></clipPath><clipPath id="d45a239535"><path d="M 104 153 L 173 153 L 173 200.296875 L 104 200.296875 Z M 104 153 " clip-rule="nonzero"/></clipPath></defs><g clip-path="url(#5508e4edaf)"><g clip-path="url(#b754c15e55)"><path fill="#fdfffc" d="M 0 0.289062 L 277.109375 0.289062 L 277.109375 399.714844 L 0 399.714844 Z M 0 0.289062 " fill-opacity="1" fill-rule="nonzero"/></g></g><g clip-path="url(#a8698433f2)"><g clip-path="url(#a86a9f2dc1)"><path stroke-linecap="butt" transform="matrix(0.747984, 0, 0, 0.747984, 0.00180259, 0.288986)" fill="none" stroke-linejoin="miter" d="M 19.001804 0.00010165 L 351.463261 0.00010165 C 356.50285 0.00010165 361.333545 2.00027 364.900425 5.567151 C 368.462083 9.128809 370.462252 13.959503 370.462252 18.999093 L 370.462252 514.81114 C 370.462252 519.850729 368.462083 524.686646 364.900425 528.248304 C 361.333545 531.809962 356.50285 533.810131 351.463261 533.810131 L 19.001804 533.810131 C 13.962214 533.810131 9.126297 531.809962 5.564639 528.248304 C 2.002981 524.686646 -0.00240993 519.850729 -0.00240993 514.81114 L -0.00240993 18.999093 C -0.00240993 13.959503 2.002981 9.128809 5.564639 5.567151 C 9.126297 2.00027 13.962214 0.00010165 19.001804 0.00010165 Z M 19.001804 0.00010165 " stroke="#1e2f56" stroke-width="8" stroke-opacity="1" stroke-miterlimit="4"/></g></g><g clip-path="url(#436cfdb5ea)"><path fill="#000000" d="M 167.109375 91.566406 C 167.109375 107.171875 154.128906 119.8125 138.101562 119.8125 C 122.074219 119.8125 109.09375 107.171875 109.09375 91.566406 C 109.09375 75.972656 122.082031 63.328125 138.101562 63.328125 C 154.121094 63.328125 167.109375 75.972656 167.109375 91.566406 Z M 167.109375 91.566406 " fill-opacity="1" fill-rule="nonzero"/></g><path fill="#000000" d="M 204.476562 145.007812 C 204.476562 160.609375 191.488281 173.25 175.464844 173.25 C 159.441406 173.25 146.457031 160.609375 146.457031 145.007812 C 146.457031 129.410156 159.441406 116.765625 175.464844 116.765625 C 191.488281 116.765625 204.476562 129.410156 204.476562 145.007812 Z M 204.476562 145.007812 " fill-opacity="1" fill-rule="nonzero"/><path fill="#000000" d="M 130.179688 145.253906 C 130.179688 150.964844 128.4375 156.28125 125.441406 160.722656 C 120.261719 168.417969 111.320312 173.492188 101.164062 173.492188 C 85.144531 173.492188 72.160156 160.851562 72.160156 145.253906 C 72.160156 129.65625 85.144531 117.011719 101.164062 117.011719 C 117.1875 117.011719 130.179688 129.65625 130.179688 145.253906 Z M 130.179688 145.253906 " fill-opacity="1" fill-rule="nonzero"/><g clip-path="url(#d45a239535)"><path fill="#000000" d="M 172.125 200.054688 C 157.800781 200.0625 150.265625 188.367188 146.308594 176.675781 C 142.351562 164.984375 141.984375 153.277344 141.984375 153.277344 L 134.671875 153.21875 C 134.671875 153.21875 133.300781 200.019531 104.65625 200.042969 L 172.128906 200.054688 Z M 172.125 200.054688 " fill-opacity="1" fill-rule="nonzero"/></g><path fill="#000000" d="M 118.382812 112.316406 C 134.675781 128.671875 134.675781 153.226562 134.675781 153.226562 L 141.984375 153.285156 C 141.984375 153.285156 141.984375 128.210938 157.824219 112.316406 " fill-opacity="1" fill-rule="nonzero"/><path fill="#000000" d="M 121.644531 164.84375 C 137.9375 148.488281 162.402344 148.488281 162.402344 148.488281 L 162.460938 141.152344 C 162.460938 141.152344 137.476562 141.152344 121.644531 125.257812 " fill-opacity="1" fill-rule="nonzero"/><path fill="#000000" d="M 154.320312 164.96875 C 138.027344 148.613281 113.5625 148.613281 113.5625 148.613281 L 113.503906 141.277344 C 113.503906 141.277344 138.484375 141.277344 154.320312 125.378906 " fill-opacity="1" fill-rule="nonzero"/><g fill="#000000" fill-opacity="1"><g transform="translate(91.908973, 317.526568)"><g><path d="M 1.5625 5.515625 C 3 5.515625 3.960938 4.535156 4.453125 2.578125 C 4.941406 0.628906 5.1875 -2.882812 5.1875 -7.96875 L 5.234375 -35.78125 C 5.234375 -36.5 5.398438 -36.96875 5.734375 -37.1875 C 6.078125 -37.414062 6.738281 -37.53125 7.71875 -37.53125 C 10.0625 -37.53125 11.253906 -36.929688 11.296875 -35.734375 L 12.078125 -21.109375 L 12.078125 -8.0625 C 12.078125 -2.550781 11.734375 1.601562 11.046875 4.40625 C 10.617188 6.03125 10.015625 7.28125 9.234375 8.15625 C 7.578125 10.019531 5.019531 10.953125 1.5625 10.953125 C 0.976562 10.921875 0.578125 10.695312 0.359375 10.28125 C 0.148438 9.875 0.0351562 9.175781 0.015625 8.1875 C 0.00390625 7.195312 0.117188 6.503906 0.359375 6.109375 C 0.609375 5.710938 1.007812 5.515625 1.5625 5.515625 Z M 1.5625 5.515625 "/></g></g></g><g fill="#000000" fill-opacity="1"><g transform="translate(106.029071, 317.526568)"><g><path d="M 14.5625 -37.578125 C 16.8125 -37.578125 18.035156 -37.070312 18.234375 -36.0625 L 21.546875 -21.0625 L 24.921875 -1.078125 C 24.992188 -0.753906 25.03125 -0.453125 25.03125 -0.171875 C 25.03125 0.109375 24.945312 0.335938 24.78125 0.515625 C 24.613281 0.691406 24.0625 0.78125 23.125 0.78125 C 20.21875 0.78125 18.664062 0.160156 18.46875 -1.078125 L 16.765625 -11.140625 L 9.921875 -11.140625 L 8.40625 -1.03125 C 8.3125 -0.34375 8.1875 0.113281 8.03125 0.34375 C 7.882812 0.570312 7.679688 0.703125 7.421875 0.734375 C 7.160156 0.765625 6.738281 0.78125 6.15625 0.78125 L 4.796875 0.78125 C 3.648438 0.78125 2.929688 0.71875 2.640625 0.59375 C 1.921875 0.332031 1.515625 0.0351562 1.421875 -0.296875 C 1.390625 -0.453125 1.375 -0.59375 1.375 -0.71875 C 1.375 -0.851562 1.710938 -3.003906 2.390625 -7.171875 C 3.078125 -11.347656 3.914062 -16.320312 4.90625 -22.09375 C 5.90625 -27.863281 6.554688 -31.644531 6.859375 -33.4375 C 7.171875 -35.226562 7.34375 -36.234375 7.375 -36.453125 C 7.507812 -37.203125 9.90625 -37.578125 14.5625 -37.578125 Z M 13.09375 -31.1875 L 10.84375 -17.0625 L 15.6875 -17.0625 Z M 13.09375 -31.1875 "/></g></g></g><g fill="#000000" fill-opacity="1"><g transform="translate(132.36378, 317.526568)"><g><path d="M 21.3125 -5.765625 C 22.125 -5.765625 22.53125 -5.242188 22.53125 -4.203125 C 22.53125 -3.160156 22.515625 -2.378906 22.484375 -1.859375 C 22.347656 -0.679688 21.828125 -0.015625 20.921875 0.140625 C 18.015625 0.566406 15.863281 0.78125 14.46875 0.78125 C 9.613281 0.78125 6.269531 -0.582031 4.4375 -3.3125 C 2.613281 -6.050781 1.703125 -10.988281 1.703125 -18.125 C 1.703125 -23.34375 2.101562 -27.328125 2.90625 -30.078125 C 3.707031 -32.835938 4.992188 -34.769531 6.765625 -35.875 C 8.546875 -36.976562 11.203125 -37.53125 14.734375 -37.53125 C 18.265625 -37.53125 20.847656 -36.976562 22.484375 -35.875 C 22.804688 -35.644531 22.96875 -35.367188 22.96875 -35.046875 C 22.96875 -34.722656 22.8125 -34.109375 22.5 -33.203125 C 22.195312 -32.304688 21.90625 -31.671875 21.625 -31.296875 C 21.351562 -30.929688 21.066406 -30.75 20.765625 -30.75 C 20.472656 -30.75 20.25 -30.765625 20.09375 -30.796875 C 17.644531 -31.285156 15.53125 -31.53125 13.75 -31.53125 C 11.976562 -31.53125 10.820312 -30.550781 10.28125 -28.59375 C 9.75 -26.632812 9.484375 -23.460938 9.484375 -19.078125 C 9.484375 -14.703125 9.597656 -11.648438 9.828125 -9.921875 C 10.054688 -8.191406 10.476562 -6.984375 11.09375 -6.296875 C 11.707031 -5.617188 12.691406 -5.28125 14.046875 -5.28125 C 15.398438 -5.28125 16.929688 -5.359375 18.640625 -5.515625 C 20.359375 -5.679688 21.25 -5.765625 21.3125 -5.765625 Z M 21.3125 -5.765625 "/></g></g></g><g fill="#000000" fill-opacity="1"><g transform="translate(156.695288, 317.526568)"><g><path d="M 17.6875 -35.78125 C 18.175781 -36.945312 19.507812 -37.53125 21.6875 -37.53125 C 23.875 -37.53125 24.96875 -37.125 24.96875 -36.3125 C 24.96875 -36.144531 24.921875 -35.96875 24.828125 -35.78125 L 17.453125 -20.375 L 26.78125 -1.03125 C 27.007812 -0.539062 27.125 -0.191406 27.125 0.015625 C 27.125 0.234375 27.066406 0.414062 26.953125 0.5625 C 26.835938 0.707031 26.203125 0.78125 25.046875 0.78125 C 23.890625 0.78125 22.648438 0.640625 21.328125 0.359375 C 20.015625 0.0859375 19.210938 -0.375 18.921875 -1.03125 L 10.359375 -18.859375 L 10.359375 -20.328125 Z M 2.203125 -0.984375 L 2.203125 -35.734375 C 2.203125 -36.441406 2.378906 -36.914062 2.734375 -37.15625 C 3.097656 -37.40625 3.765625 -37.53125 4.734375 -37.53125 C 7.085938 -37.53125 8.28125 -36.910156 8.3125 -35.671875 L 9.046875 -21.109375 L 9.09375 -1.078125 C 9.09375 -0.492188 9.0625 -0.101562 9 0.09375 C 8.894531 0.550781 8.273438 0.78125 7.140625 0.78125 C 3.847656 0.78125 2.203125 0.191406 2.203125 -0.984375 Z M 2.203125 -0.984375 "/></g></g></g></svg>