<svg xmlns="http://www.w3.org/2000/svg" xmlns:xlink="http://www.w3.org/1999/xlink" width="371" zoomAndPan="magnify" viewBox="0 0 278.25 400.499996" height="534" preserveAspectRatio="xMidYMid meet" version="1.0"><defs><g/><clipPath id="d7ff5a5e5b"><path d="M 0 0.289062 L 277.109375 0.289062 L 277.109375 399.710938 L 0 399.710938 Z M 0 0.289062 " clip-rule="nonzero"/></clipPath><clipPath id="4511e98658"><path d="M 14.210938 0.289062 L 262.894531 0.289062 C 266.664062 0.289062 270.28125 1.785156 272.945312 4.453125 C 275.609375 7.117188 277.109375 10.730469 277.109375 14.5 L 277.109375 385.371094 C 277.109375 389.140625 275.609375 392.753906 272.945312 395.417969 C 270.28125 398.085938 266.664062 399.582031 262.894531 399.582031 L 14.210938 399.582031 C 10.441406 399.582031 6.828125 398.085938 4.164062 395.417969 C 1.496094 392.753906 0 389.140625 0 385.371094 L 0 14.5 C 0 10.730469 1.496094 7.117188 4.164062 4.453125 C 6.828125 1.785156 10.441406 0.289062 14.210938 0.289062 Z M 14.210938 0.289062 " clip-rule="nonzero"/></clipPath><clipPath id="3e5681e711"><path d="M 0 0.289062 L 276.753906 0.289062 L 276.753906 399.710938 L 0 399.710938 Z M 0 0.289062 " clip-rule="nonzero"/></clipPath><clipPath id="dd46d792a9"><path d="M 14.214844 0.289062 L 262.890625 0.289062 C 266.660156 0.289062 270.273438 1.785156 272.941406 4.453125 C 275.605469 7.117188 277.101562 10.730469 277.101562 14.5 L 277.101562 385.359375 C 277.101562 389.128906 275.605469 392.746094 272.941406 395.410156 C 270.273438 398.074219 266.660156 399.570312 262.890625 399.570312 L 14.214844 399.570312 C 10.445312 399.570312 6.828125 398.074219 4.164062 395.410156 C 1.5 392.746094 0 389.128906 0 385.359375 L 0 14.5 C 0 10.730469 1.5 7.117188 4.164062 4.453125 C 6.828125 1.785156 10.445312 0.289062 14.214844 0.289062 Z M 14.214844 0.289062 " clip-rule="nonzero"/></clipPath><clipPath id="e4ddf6df71"><path d="M 109 63.414062 L 168 63.414062 L 168 120 L 109 120 Z M 109 63.414062 " clip-rule="nonzero"/></clipPath><clipPath id="4de3ed4a72"><path d="M 104 153 L 173 153 L 173 200.296875 L 104 200.296875 Z M 104 153 " clip-rule="nonzero"/></clipPath></defs><g clip-path="url(#d7ff5a5e5b)"><g clip-path="url(#4511e98658)"><path fill="#fdfffc" d="M 0 0.289062 L 277.109375 0.289062 L 277.109375 399.714844 L 0 399.714844 Z M 0 0.289062 " fill-opacity="1" fill-rule="nonzero"/></g></g><g clip-path="url(#3e5681e711)"><g clip-path="url(#dd46d792a9)"><path stroke-linecap="butt" transform="matrix(0.747984, 0, 0, 0.747984, 0.00180259, 0.288986)" fill="none" stroke-linejoin="miter" d="M 19.001804 0.00010165 L 351.463261 0.00010165 C 356.50285 0.00010165 361.333545 2.00027 364.900425 5.567151 C 368.462083 9.128809 370.462252 13.959503 370.462252 18.999093 L 370.462252 514.81114 C 370.462252 519.850729 368.462083 524.686646 364.900425 528.248304 C 361.333545 531.809962 356.50285 533.810131 351.463261 533.810131 L 19.001804 533.810131 C 13.962214 533.810131 9.126297 531.809962 5.564639 528.248304 C 2.002981 524.686646 -0.00240993 519.850729 -0.00240993 514.81114 L -0.00240993 18.999093 C -0.00240993 13.959503 2.002981 9.128809 5.564639 5.567151 C 9.126297 2.00027 13.962214 0.00010165 19.001804 0.00010165 Z M 19.001804 0.00010165 " stroke="#1e2f56" stroke-width="8" stroke-opacity="1" stroke-miterlimit="4"/></g></g><g clip-path="url(#e4ddf6df71)"><path fill="#000000" d="M 167.109375 91.566406 C 167.109375 107.171875 154.128906 119.8125 138.101562 119.8125 C 122.074219 119.8125 109.09375 107.171875 109.09375 91.566406 C 109.09375 75.972656 122.082031 63.328125 138.101562 63.328125 C 154.121094 63.328125 167.109375 75.972656 167.109375 91.566406 Z M 167.109375 91.566406 " fill-opacity="1" fill-rule="nonzero"/></g><path fill="#000000" d="M 204.476562 145.007812 C 204.476562 160.609375 191.488281 173.25 175.464844 173.25 C 159.441406 173.25 146.457031 160.609375 146.457031 145.007812 C 146.457031 129.410156 159.441406 116.765625 175.464844 116.765625 C 191.488281 116.765625 204.476562 129.410156 204.476562 145.007812 Z M 204.476562 145.007812 " fill-opacity="1" fill-rule="nonzero"/><path fill="#000000" d="M 130.179688 145.253906 C 130.179688 150.964844 128.4375 156.28125 125.441406 160.722656 C 120.261719 168.417969 111.320312 173.492188 101.164062 173.492188 C 85.144531 173.492188 72.160156 160.851562 72.160156 145.253906 C 72.160156 129.65625 85.144531 117.011719 101.164062 117.011719 C 117.1875 117.011719 130.179688 129.65625 130.179688 145.253906 Z M 130.179688 145.253906 " fill-opacity="1" fill-rule="nonzero"/><g clip-path="url(#4de3ed4a72)"><path fill="#000000" d="M 172.125 200.054688 C 157.800781 200.0625 150.265625 188.367188 146.308594 176.675781 C 142.351562 164.984375 141.984375 153.277344 141.984375 153.277344 L 134.671875 153.21875 C 134.671875 153.21875 133.300781 200.019531 104.65625 200.042969 L 172.128906 200.054688 Z M 172.125 200.054688 " fill-opacity="1" fill-rule="nonzero"/></g><path fill="#000000" d="M 118.382812 112.316406 C 134.675781 128.671875 134.675781 153.226562 134.675781 153.226562 L 141.984375 153.285156 C 141.984375 153.285156 141.984375 128.210938 157.824219 112.316406 " fill-opacity="1" fill-rule="nonzero"/><path fill="#000000" d="M 121.644531 164.84375 C 137.9375 148.488281 162.402344 148.488281 162.402344 148.488281 L 162.460938 141.152344 C 162.460938 141.152344 137.476562 141.152344 121.644531 125.257812 " fill-opacity="1" fill-rule="nonzero"/><path fill="#000000" d="M 154.320312 164.96875 C 138.027344 148.613281 113.5625 148.613281 113.5625 148.613281 L 113.503906 141.277344 C 113.503906 141.277344 138.484375 141.277344 154.320312 125.378906 " fill-opacity="1" fill-rule="nonzero"/><g fill="#000000" fill-opacity="1"><g transform="translate(122.056192, 313.072926)"><g><path d="M 19.03125 -38.484375 L 19.109375 -41.265625 C 19.109375 -42.140625 19.015625 -42.671875 18.828125 -42.859375 C 18.640625 -43.046875 18.40625 -43.207031 18.125 -43.34375 C 17.664062 -43.582031 16.960938 -43.703125 16.015625 -43.703125 C 15.066406 -43.703125 14.3125 -43.6875 13.75 -43.65625 C 13.195312 -43.632812 12.742188 -43.613281 12.390625 -43.59375 C 12.046875 -43.570312 11.703125 -43.523438 11.359375 -43.453125 C 11.015625 -43.378906 10.769531 -43.320312 10.625 -43.28125 C 9.9375 -43.050781 9.40625 -42.890625 9.03125 -42.796875 L 5.625 -42.796875 L 3.6875 -49.8125 C 6.1875 -51.425781 10.003906 -52.234375 15.140625 -52.234375 C 18.335938 -52.234375 20.863281 -52.015625 22.71875 -51.578125 C 24.570312 -51.140625 25.960938 -50.296875 26.890625 -49.046875 C 27.816406 -47.796875 28.40625 -46.414062 28.65625 -44.90625 C 28.90625 -43.40625 29.03125 -41.925781 29.03125 -40.46875 C 29.03125 -39.007812 29.039062 -37.929688 29.0625 -37.234375 C 29.09375 -36.535156 29.09375 -36.082031 29.0625 -35.875 C 29.039062 -35.664062 28.984375 -35.179688 28.890625 -34.421875 C 28.804688 -33.660156 28.679688 -33.035156 28.515625 -32.546875 C 28.359375 -32.054688 28.101562 -31.3125 27.75 -30.3125 C 27.40625 -29.320312 26.988281 -28.382812 26.5 -27.5 C 26.007812 -26.625 25.394531 -25.515625 24.65625 -24.171875 C 23.914062 -22.828125 23.0625 -21.4375 22.09375 -20 C 19.175781 -15.507812 16.648438 -11.875 14.515625 -9.09375 L 29.109375 -9.09375 L 30.21875 -7.984375 L 30.21875 0 L 2.703125 0 L 2.703125 -8.609375 C 9.742188 -18.660156 14.222656 -25.363281 16.140625 -28.71875 C 18.066406 -32.082031 19.03125 -35.335938 19.03125 -38.484375 Z M 19.03125 -38.484375 "/></g></g></g></svg>