<svg xmlns="http://www.w3.org/2000/svg" xmlns:xlink="http://www.w3.org/1999/xlink" width="371" zoomAndPan="magnify" viewBox="0 0 278.25 400.499996" height="534" preserveAspectRatio="xMidYMid meet" version="1.0"><defs><g/><clipPath id="4bd4a629c2"><path d="M 0 0.289062 L 277.109375 0.289062 L 277.109375 399.710938 L 0 399.710938 Z M 0 0.289062 " clip-rule="nonzero"/></clipPath><clipPath id="7ee7224c0f"><path d="M 14.210938 0.289062 L 262.894531 0.289062 C 266.664062 0.289062 270.28125 1.785156 272.945312 4.453125 C 275.609375 7.117188 277.109375 10.730469 277.109375 14.5 L 277.109375 385.371094 C 277.109375 389.140625 275.609375 392.753906 272.945312 395.417969 C 270.28125 398.085938 266.664062 399.582031 262.894531 399.582031 L 14.210938 399.582031 C 10.441406 399.582031 6.828125 398.085938 4.164062 395.417969 C 1.496094 392.753906 0 389.140625 0 385.371094 L 0 14.5 C 0 10.730469 1.496094 7.117188 4.164062 4.453125 C 6.828125 1.785156 10.441406 0.289062 14.210938 0.289062 Z M 14.210938 0.289062 " clip-rule="nonzero"/></clipPath><clipPath id="52485be21c"><path d="M 0 0.289062 L 276.753906 0.289062 L 276.753906 399.710938 L 0 399.710938 Z M 0 0.289062 " clip-rule="nonzero"/></clipPath><clipPath id="deb0c52c04"><path d="M 14.214844 0.289062 L 262.890625 0.289062 C 266.660156 0.289062 270.273438 1.785156 272.941406 4.453125 C 275.605469 7.117188 277.101562 10.730469 277.101562 14.5 L 277.101562 385.359375 C 277.101562 389.128906 275.605469 392.746094 272.941406 395.410156 C 270.273438 398.074219 266.660156 399.570312 262.890625 399.570312 L 14.214844 399.570312 C 10.445312 399.570312 6.828125 398.074219 4.164062 395.410156 C 1.5 392.746094 0 389.128906 0 385.359375 L 0 14.5 C 0 10.730469 1.5 7.117188 4.164062 4.453125 C 6.828125 1.785156 10.445312 0.289062 14.214844 0.289062 Z M 14.214844 0.289062 " clip-rule="nonzero"/></clipPath><clipPath id="703f3d088f"><path d="M 109 63.414062 L 168 63.414062 L 168 120 L 109 120 Z M 109 63.414062 " clip-rule="nonzero"/></clipPath><clipPath id="da61f9b39f"><path d="M 104 153 L 173 153 L 173 200.296875 L 104 200.296875 Z M 104 153 " clip-rule="nonzero"/></clipPath></defs><g clip-path="url(#4bd4a629c2)"><g clip-path="url(#7ee7224c0f)"><path fill="#fdfffc" d="M 0 0.289062 L 277.109375 0.289062 L 277.109375 399.714844 L 0 399.714844 Z M 0 0.289062 " fill-opacity="1" fill-rule="nonzero"/></g></g><g clip-path="url(#52485be21c)"><g clip-path="url(#deb0c52c04)"><path stroke-linecap="butt" transform="matrix(0.747984, 0, 0, 0.747984, 0.00180259, 0.288986)" fill="none" stroke-linejoin="miter" d="M 19.001804 0.00010165 L 351.463261 0.00010165 C 356.50285 0.00010165 361.333545 2.00027 364.900425 5.567151 C 368.462083 9.128809 370.462252 13.959503 370.462252 18.999093 L 370.462252 514.81114 C 370.462252 519.850729 368.462083 524.686646 364.900425 528.248304 C 361.333545 531.809962 356.50285 533.810131 351.463261 533.810131 L 19.001804 533.810131 C 13.962214 533.810131 9.126297 531.809962 5.564639 528.248304 C 2.002981 524.686646 -0.00240993 519.850729 -0.00240993 514.81114 L -0.00240993 18.999093 C -0.00240993 13.959503 2.002981 9.128809 5.564639 5.567151 C 9.126297 2.00027 13.962214 0.00010165 19.001804 0.00010165 Z M 19.001804 0.00010165 " stroke="#1e2f56" stroke-width="8" stroke-opacity="1" stroke-miterlimit="4"/></g></g><g clip-path="url(#703f3d088f)"><path fill="#000000" d="M 167.109375 91.566406 C 167.109375 107.171875 154.128906 119.8125 138.101562 119.8125 C 122.074219 119.8125 109.09375 107.171875 109.09375 91.566406 C 109.09375 75.972656 122.082031 63.328125 138.101562 63.328125 C 154.121094 63.328125 167.109375 75.972656 167.109375 91.566406 Z M 167.109375 91.566406 " fill-opacity="1" fill-rule="nonzero"/></g><path fill="#000000" d="M 204.476562 145.007812 C 204.476562 160.609375 191.488281 173.25 175.464844 173.25 C 159.441406 173.25 146.457031 160.609375 146.457031 145.007812 C 146.457031 129.410156 159.441406 116.765625 175.464844 116.765625 C 191.488281 116.765625 204.476562 129.410156 204.476562 145.007812 Z M 204.476562 145.007812 " fill-opacity="1" fill-rule="nonzero"/><path fill="#000000" d="M 130.179688 145.253906 C 130.179688 150.964844 128.4375 156.28125 125.441406 160.722656 C 120.261719 168.417969 111.320312 173.492188 101.164062 173.492188 C 85.144531 173.492188 72.160156 160.851562 72.160156 145.253906 C 72.160156 129.65625 85.144531 117.011719 101.164062 117.011719 C 117.1875 117.011719 130.179688 129.65625 130.179688 145.253906 Z M 130.179688 145.253906 " fill-opacity="1" fill-rule="nonzero"/><g clip-path="url(#da61f9b39f)"><path fill="#000000" d="M 172.125 200.054688 C 157.800781 200.0625 150.265625 188.367188 146.308594 176.675781 C 142.351562 164.984375 141.984375 153.277344 141.984375 153.277344 L 134.671875 153.21875 C 134.671875 153.21875 133.300781 200.019531 104.65625 200.042969 L 172.128906 200.054688 Z M 172.125 200.054688 " fill-opacity="1" fill-rule="nonzero"/></g><path fill="#000000" d="M 118.382812 112.316406 C 134.675781 128.671875 134.675781 153.226562 134.675781 153.226562 L 141.984375 153.285156 C 141.984375 153.285156 141.984375 128.210938 157.824219 112.316406 " fill-opacity="1" fill-rule="nonzero"/><path fill="#000000" d="M 121.644531 164.84375 C 137.9375 148.488281 162.402344 148.488281 162.402344 148.488281 L 162.460938 141.152344 C 162.460938 141.152344 137.476562 141.152344 121.644531 125.257812 " fill-opacity="1" fill-rule="nonzero"/><path fill="#000000" d="M 154.320312 164.96875 C 138.027344 148.613281 113.5625 148.613281 113.5625 148.613281 L 113.503906 141.277344 C 113.503906 141.277344 138.484375 141.277344 154.320312 125.378906 " fill-opacity="1" fill-rule="nonzero"/><g fill="#000000" fill-opacity="1"><g transform="translate(121.567784, 313.072926)"><g><path d="M 32.03125 -21.390625 L 28 -21.390625 L 28 0 L 19.109375 0 L 18 -1.109375 L 18 -21.390625 L 2.5 -21.390625 L 1.390625 -22.515625 L 1.453125 -52.234375 L 9.03125 -52.234375 L 10.140625 -51.125 L 11.25 -30.015625 L 18 -30.015625 L 18.0625 -52.234375 L 25.765625 -52.234375 L 26.890625 -51.125 L 28 -30.015625 L 30.90625 -30.015625 L 32.03125 -28.90625 Z M 32.03125 -21.390625 "/></g></g></g></svg>