<svg xmlns="http://www.w3.org/2000/svg" xmlns:xlink="http://www.w3.org/1999/xlink" width="371" zoomAndPan="magnify" viewBox="0 0 278.25 400.499996" height="534" preserveAspectRatio="xMidYMid meet" version="1.0"><defs><g/><clipPath id="7974c54fd5"><path d="M 0 0.289062 L 277.109375 0.289062 L 277.109375 399.710938 L 0 399.710938 Z M 0 0.289062 " clip-rule="nonzero"/></clipPath><clipPath id="249561f97b"><path d="M 14.210938 0.289062 L 262.894531 0.289062 C 266.664062 0.289062 270.28125 1.785156 272.945312 4.453125 C 275.609375 7.117188 277.109375 10.730469 277.109375 14.5 L 277.109375 385.371094 C 277.109375 389.140625 275.609375 392.753906 272.945312 395.417969 C 270.28125 398.085938 266.664062 399.582031 262.894531 399.582031 L 14.210938 399.582031 C 10.441406 399.582031 6.828125 398.085938 4.164062 395.417969 C 1.496094 392.753906 0 389.140625 0 385.371094 L 0 14.5 C 0 10.730469 1.496094 7.117188 4.164062 4.453125 C 6.828125 1.785156 10.441406 0.289062 14.210938 0.289062 Z M 14.210938 0.289062 " clip-rule="nonzero"/></clipPath><clipPath id="44db2a6882"><path d="M 0 0.289062 L 276.753906 0.289062 L 276.753906 399.710938 L 0 399.710938 Z M 0 0.289062 " clip-rule="nonzero"/></clipPath><clipPath id="c3ddbbc080"><path d="M 14.214844 0.289062 L 262.890625 0.289062 C 266.660156 0.289062 270.273438 1.785156 272.941406 4.453125 C 275.605469 7.117188 277.101562 10.730469 277.101562 14.5 L 277.101562 385.359375 C 277.101562 389.128906 275.605469 392.746094 272.941406 395.410156 C 270.273438 398.074219 266.660156 399.570312 262.890625 399.570312 L 14.214844 399.570312 C 10.445312 399.570312 6.828125 398.074219 4.164062 395.410156 C 1.5 392.746094 0 389.128906 0 385.359375 L 0 14.5 C 0 10.730469 1.5 7.117188 4.164062 4.453125 C 6.828125 1.785156 10.445312 0.289062 14.214844 0.289062 Z M 14.214844 0.289062 " clip-rule="nonzero"/></clipPath><clipPath id="a35bfa1b7a"><path d="M 89.15625 63.414062 L 187 63.414062 L 187 200 L 89.15625 200 Z M 89.15625 63.414062 " clip-rule="nonzero"/></clipPath></defs><g clip-path="url(#7974c54fd5)"><g clip-path="url(#249561f97b)"><path fill="#fdfffc" d="M 0 0.289062 L 277.109375 0.289062 L 277.109375 399.714844 L 0 399.714844 Z M 0 0.289062 " fill-opacity="1" fill-rule="nonzero"/></g></g><g clip-path="url(#44db2a6882)"><g clip-path="url(#c3ddbbc080)"><path stroke-linecap="butt" transform="matrix(0.747984, 0, 0, 0.747984, 0.00180259, 0.288986)" fill="none" stroke-linejoin="miter" d="M 19.001804 0.00010165 L 351.463261 0.00010165 C 356.50285 0.00010165 361.333545 2.00027 364.900425 5.567151 C 368.462083 9.128809 370.462252 13.959503 370.462252 18.999093 L 370.462252 514.81114 C 370.462252 519.850729 368.462083 524.686646 364.900425 528.248304 C 361.333545 531.809962 356.50285 533.810131 351.463261 533.810131 L 19.001804 533.810131 C 13.962214 533.810131 9.126297 531.809962 5.564639 528.248304 C 2.002981 524.686646 -0.00240993 519.850729 -0.00240993 514.81114 L -0.00240993 18.999093 C -0.00240993 13.959503 2.002981 9.128809 5.564639 5.567151 C 9.126297 2.00027 13.962214 0.00010165 19.001804 0.00010165 Z M 19.001804 0.00010165 " stroke="#1e2f56" stroke-width="8" stroke-opacity="1" stroke-miterlimit="4"/></g></g><g clip-path="url(#a35bfa1b7a)"><path fill="#dd2e44" d="M 139.984375 198.960938 C 139.070312 200.234375 137.601562 200.234375 136.6875 198.960938 L 90.515625 134.167969 C 89.605469 132.890625 89.605469 130.820312 90.515625 129.542969 L 136.6875 64.75 C 137.601562 63.472656 139.070312 63.472656 139.984375 64.75 L 186.160156 129.542969 C 187.066406 130.820312 187.066406 132.890625 186.160156 134.167969 Z M 139.984375 198.960938 " fill-opacity="1" fill-rule="nonzero"/></g><g fill="#000000" fill-opacity="1"><g transform="translate(121.739621, 313.072926)"><g><path d="M 16.46875 -43.703125 C 12.894531 -43.703125 10.09375 -43.398438 8.0625 -42.796875 L 4.65625 -42.796875 L 2.703125 -49.8125 C 5.203125 -51.425781 9.023438 -52.234375 14.171875 -52.234375 C 20.566406 -52.234375 24.828125 -51.03125 26.953125 -48.625 C 28.066406 -47.375 28.832031 -45.890625 29.25 -44.171875 C 29.664062 -42.460938 29.875 -40.265625 29.875 -37.578125 C 29.875 -33.367188 28.898438 -29.988281 26.953125 -27.4375 C 29.828125 -25.070312 31.265625 -20.835938 31.265625 -14.734375 C 31.265625 -12.273438 31.019531 -10.15625 30.53125 -8.375 C 30.039062 -6.59375 29.171875 -4.957031 27.921875 -3.46875 C 25.421875 -0.414062 20.609375 1.109375 13.484375 1.109375 C 11.347656 1.109375 8.128906 0.878906 3.828125 0.421875 L 3.828125 -8.203125 C 8.265625 -7.921875 11.78125 -7.78125 14.375 -7.78125 C 16.96875 -7.78125 18.644531 -8.207031 19.40625 -9.0625 C 20.175781 -9.914062 20.5625 -11.828125 20.5625 -14.796875 L 20.5625 -18.125 C 20.5625 -19.289062 20.488281 -19.960938 20.34375 -20.140625 C 20.207031 -20.328125 20.035156 -20.570312 19.828125 -20.875 C 19.617188 -21.175781 19.375 -21.347656 19.09375 -21.390625 C 18.820312 -21.441406 18.457031 -21.535156 18 -21.671875 C 17.34375 -21.804688 16.132812 -21.875 14.375 -21.875 L 9.375 -21.875 L 9.375 -30.78125 C 12.476562 -30.78125 14.597656 -30.914062 15.734375 -31.1875 C 16.867188 -31.46875 17.597656 -31.863281 17.921875 -32.375 C 18.753906 -33.488281 19.171875 -35.25 19.171875 -37.65625 C 19.171875 -41.6875 18.269531 -43.703125 16.46875 -43.703125 Z M 16.46875 -43.703125 "/></g></g></g></svg>