<svg xmlns="http://www.w3.org/2000/svg" xmlns:xlink="http://www.w3.org/1999/xlink" width="371" zoomAndPan="magnify" viewBox="0 0 278.25 400.499996" height="534" preserveAspectRatio="xMidYMid meet" version="1.0"><defs><g/><clipPath id="f38b4065b7"><path d="M 0 0.289062 L 277.109375 0.289062 L 277.109375 399.710938 L 0 399.710938 Z M 0 0.289062 " clip-rule="nonzero"/></clipPath><clipPath id="0e06238416"><path d="M 14.210938 0.289062 L 262.894531 0.289062 C 266.664062 0.289062 270.28125 1.785156 272.945312 4.453125 C 275.609375 7.117188 277.109375 10.730469 277.109375 14.5 L 277.109375 385.371094 C 277.109375 389.140625 275.609375 392.753906 272.945312 395.417969 C 270.28125 398.085938 266.664062 399.582031 262.894531 399.582031 L 14.210938 399.582031 C 10.441406 399.582031 6.828125 398.085938 4.164062 395.417969 C 1.496094 392.753906 0 389.140625 0 385.371094 L 0 14.5 C 0 10.730469 1.496094 7.117188 4.164062 4.453125 C 6.828125 1.785156 10.441406 0.289062 14.210938 0.289062 Z M 14.210938 0.289062 " clip-rule="nonzero"/></clipPath><clipPath id="3e90ad9d83"><path d="M 0 0.289062 L 276.753906 0.289062 L 276.753906 399.710938 L 0 399.710938 Z M 0 0.289062 " clip-rule="nonzero"/></clipPath><clipPath id="f650503b9d"><path d="M 14.214844 0.289062 L 262.890625 0.289062 C 266.660156 0.289062 270.273438 1.785156 272.941406 4.453125 C 275.605469 7.117188 277.101562 10.730469 277.101562 14.5 L 277.101562 385.359375 C 277.101562 389.128906 275.605469 392.746094 272.941406 395.410156 C 270.273438 398.074219 266.660156 399.570312 262.890625 399.570312 L 14.214844 399.570312 C 10.445312 399.570312 6.828125 398.074219 4.164062 395.410156 C 1.5 392.746094 0 389.128906 0 385.359375 L 0 14.5 C 0 10.730469 1.5 7.117188 4.164062 4.453125 C 6.828125 1.785156 10.445312 0.289062 14.214844 0.289062 Z M 14.214844 0.289062 " clip-rule="nonzero"/></clipPath><clipPath id="64e7f1cb57"><path d="M 89.15625 63.414062 L 187 63.414062 L 187 200 L 89.15625 200 Z M 89.15625 63.414062 " clip-rule="nonzero"/></clipPath></defs><g clip-path="url(#f38b4065b7)"><g clip-path="url(#0e06238416)"><path fill="#fdfffc" d="M 0 0.289062 L 277.109375 0.289062 L 277.109375 399.714844 L 0 399.714844 Z M 0 0.289062 " fill-opacity="1" fill-rule="nonzero"/></g></g><g clip-path="url(#3e90ad9d83)"><g clip-path="url(#f650503b9d)"><path stroke-linecap="butt" transform="matrix(0.747984, 0, 0, 0.747984, 0.00180259, 0.288986)" fill="none" stroke-linejoin="miter" d="M 19.001804 0.00010165 L 351.463261 0.00010165 C 356.50285 0.00010165 361.333545 2.00027 364.900425 5.567151 C 368.462083 9.128809 370.462252 13.959503 370.462252 18.999093 L 370.462252 514.81114 C 370.462252 519.850729 368.462083 524.686646 364.900425 528.248304 C 361.333545 531.809962 356.50285 533.810131 351.463261 533.810131 L 19.001804 533.810131 C 13.962214 533.810131 9.126297 531.809962 5.564639 528.248304 C 2.002981 524.686646 -0.00240993 519.850729 -0.00240993 514.81114 L -0.00240993 18.999093 C -0.00240993 13.959503 2.002981 9.128809 5.564639 5.567151 C 9.126297 2.00027 13.962214 0.00010165 19.001804 0.00010165 Z M 19.001804 0.00010165 " stroke="#1e2f56" stroke-width="8" stroke-opacity="1" stroke-miterlimit="4"/></g></g><g clip-path="url(#64e7f1cb57)"><path fill="#dd2e44" d="M 139.984375 198.960938 C 139.070312 200.234375 137.601562 200.234375 136.6875 198.960938 L 90.515625 134.167969 C 89.605469 132.890625 89.605469 130.820312 90.515625 129.542969 L 136.6875 64.75 C 137.601562 63.472656 139.070312 63.472656 139.984375 64.75 L 186.160156 129.542969 C 187.066406 130.820312 187.066406 132.890625 186.160156 134.167969 Z M 139.984375 198.960938 " fill-opacity="1" fill-rule="nonzero"/></g><g fill="#000000" fill-opacity="1"><g transform="translate(122.779778, 313.072926)"><g><path d="M 29.453125 -34.59375 C 29.453125 -30.800781 29.054688 -27.0625 28.265625 -23.375 C 27.484375 -19.695312 26.695312 -16.828125 25.90625 -14.765625 C 25.125 -12.703125 23.96875 -10.003906 22.4375 -6.671875 C 20.90625 -3.335938 19.910156 -1.113281 19.453125 0 L 18.34375 1.109375 L 11.953125 -1.109375 L 10.84375 -2.21875 C 10.882812 -2.3125 11.390625 -3.296875 12.359375 -5.171875 C 13.335938 -7.046875 14.082031 -8.492188 14.59375 -9.515625 C 16.164062 -12.898438 17.046875 -15.378906 17.234375 -16.953125 L 15.5625 -16.25 C 11.90625 -16.25 9.113281 -16.734375 7.1875 -17.703125 C 5.269531 -18.679688 3.867188 -20.476562 2.984375 -23.09375 C 2.109375 -25.707031 1.671875 -29.539062 1.671875 -34.59375 C 1.671875 -41.582031 2.675781 -46.476562 4.6875 -49.28125 C 6.707031 -52.082031 10.332031 -53.484375 15.5625 -53.484375 C 20.789062 -53.484375 24.410156 -52.082031 26.421875 -49.28125 C 28.441406 -46.476562 29.453125 -41.582031 29.453125 -34.59375 Z M 19.875 -34.59375 C 19.875 -41.863281 19.15625 -45.5 17.71875 -45.5 C 15.070312 -45.5 13.425781 -44.894531 12.78125 -43.6875 C 12.132812 -42.488281 11.8125 -39.457031 11.8125 -34.59375 C 11.8125 -27.601562 12.53125 -24.109375 13.96875 -24.109375 C 16.65625 -24.109375 18.3125 -24.6875 18.9375 -25.84375 C 19.5625 -27 19.875 -29.914062 19.875 -34.59375 Z M 19.875 -34.59375 "/></g></g></g></svg>