<svg xmlns="http://www.w3.org/2000/svg" xmlns:xlink="http://www.w3.org/1999/xlink" width="371" zoomAndPan="magnify" viewBox="0 0 278.25 400.499996" height="534" preserveAspectRatio="xMidYMid meet" version="1.0"><defs><g/><clipPath id="ec4a47679a"><path d="M 0 0.289062 L 277.109375 0.289062 L 277.109375 399.710938 L 0 399.710938 Z M 0 0.289062 " clip-rule="nonzero"/></clipPath><clipPath id="64a1fd9657"><path d="M 14.210938 0.289062 L 262.894531 0.289062 C 266.664062 0.289062 270.28125 1.785156 272.945312 4.453125 C 275.609375 7.117188 277.109375 10.730469 277.109375 14.5 L 277.109375 385.371094 C 277.109375 389.140625 275.609375 392.753906 272.945312 395.417969 C 270.28125 398.085938 266.664062 399.582031 262.894531 399.582031 L 14.210938 399.582031 C 10.441406 399.582031 6.828125 398.085938 4.164062 395.417969 C 1.496094 392.753906 0 389.140625 0 385.371094 L 0 14.5 C 0 10.730469 1.496094 7.117188 4.164062 4.453125 C 6.828125 1.785156 10.441406 0.289062 14.210938 0.289062 Z M 14.210938 0.289062 " clip-rule="nonzero"/></clipPath><clipPath id="90abaa1d70"><path d="M 0 0.289062 L 276.753906 0.289062 L 276.753906 399.710938 L 0 399.710938 Z M 0 0.289062 " clip-rule="nonzero"/></clipPath><clipPath id="b2feeacf49"><path d="M 14.214844 0.289062 L 262.890625 0.289062 C 266.660156 0.289062 270.273438 1.785156 272.941406 4.453125 C 275.605469 7.117188 277.101562 10.730469 277.101562 14.5 L 277.101562 385.359375 C 277.101562 389.128906 275.605469 392.746094 272.941406 395.410156 C 270.273438 398.074219 266.660156 399.570312 262.890625 399.570312 L 14.214844 399.570312 C 10.445312 399.570312 6.828125 398.074219 4.164062 395.410156 C 1.5 392.746094 0 389.128906 0 385.359375 L 0 14.5 C 0 10.730469 1.5 7.117188 4.164062 4.453125 C 6.828125 1.785156 10.445312 0.289062 14.214844 0.289062 Z M 14.214844 0.289062 " clip-rule="nonzero"/></clipPath><clipPath id="e6d05185c8"><path d="M 74.265625 79 L 202.917969 79 L 202.917969 200 L 74.265625 200 Z M 74.265625 79 " clip-rule="nonzero"/></clipPath></defs><g clip-path="url(#ec4a47679a)"><g clip-path="url(#64a1fd9657)"><path fill="#fdfffc" d="M 0 0.289062 L 277.109375 0.289062 L 277.109375 399.714844 L 0 399.714844 Z M 0 0.289062 " fill-opacity="1" fill-rule="nonzero"/></g></g><g clip-path="url(#90abaa1d70)"><g clip-path="url(#b2feeacf49)"><path stroke-linecap="butt" transform="matrix(0.747984, 0, 0, 0.747984, 0.00180259, 0.288986)" fill="none" stroke-linejoin="miter" d="M 19.001804 0.00010165 L 351.463261 0.00010165 C 356.50285 0.00010165 361.333545 2.00027 364.900425 5.567151 C 368.462083 9.128809 370.462252 13.959503 370.462252 18.999093 L 370.462252 514.81114 C 370.462252 519.850729 368.462083 524.686646 364.900425 528.248304 C 361.333545 531.809962 356.50285 533.810131 351.463261 533.810131 L 19.001804 533.810131 C 13.962214 533.810131 9.126297 531.809962 5.564639 528.248304 C 2.002981 524.686646 -0.00240993 519.850729 -0.00240993 514.81114 L -0.00240993 18.999093 C -0.00240993 13.959503 2.002981 9.128809 5.564639 5.567151 C 9.126297 2.00027 13.962214 0.00010165 19.001804 0.00010165 Z M 19.001804 0.00010165 " stroke="#1e2f56" stroke-width="8" stroke-opacity="1" stroke-miterlimit="4"/></g></g><g clip-path="url(#e6d05185c8)"><path fill="#dd2e44" d="M 74.132812 112.332031 C 74.132812 76.777344 123.269531 63.601562 138.390625 104.757812 C 153.507812 63.597656 202.648438 76.773438 202.648438 112.332031 C 202.648438 150.964844 138.390625 199.949219 138.390625 199.949219 C 138.390625 199.949219 74.132812 150.964844 74.132812 112.332031 Z M 74.132812 112.332031 " fill-opacity="1" fill-rule="nonzero"/></g><g fill="#000000" fill-opacity="1"><g transform="translate(101.407077, 317.526568)"><g><path d="M 14.5625 -37.578125 C 16.8125 -37.578125 18.035156 -37.070312 18.234375 -36.0625 L 21.546875 -21.0625 L 24.921875 -1.078125 C 24.992188 -0.753906 25.03125 -0.453125 25.03125 -0.171875 C 25.03125 0.109375 24.945312 0.335938 24.78125 0.515625 C 24.613281 0.691406 24.0625 0.78125 23.125 0.78125 C 20.21875 0.78125 18.664062 0.160156 18.46875 -1.078125 L 16.765625 -11.140625 L 9.921875 -11.140625 L 8.40625 -1.03125 C 8.3125 -0.34375 8.1875 0.113281 8.03125 0.34375 C 7.882812 0.570312 7.679688 0.703125 7.421875 0.734375 C 7.160156 0.765625 6.738281 0.78125 6.15625 0.78125 L 4.796875 0.78125 C 3.648438 0.78125 2.929688 0.71875 2.640625 0.59375 C 1.921875 0.332031 1.515625 0.0351562 1.421875 -0.296875 C 1.390625 -0.453125 1.375 -0.59375 1.375 -0.71875 C 1.375 -0.851562 1.710938 -3.003906 2.390625 -7.171875 C 3.078125 -11.347656 3.914062 -16.320312 4.90625 -22.09375 C 5.90625 -27.863281 6.554688 -31.644531 6.859375 -33.4375 C 7.171875 -35.226562 7.34375 -36.234375 7.375 -36.453125 C 7.507812 -37.203125 9.90625 -37.578125 14.5625 -37.578125 Z M 13.09375 -31.1875 L 10.84375 -17.0625 L 15.6875 -17.0625 Z M 13.09375 -31.1875 "/></g></g></g><g fill="#000000" fill-opacity="1"><g transform="translate(127.741785, 317.526568)"><g><path d="M 21.3125 -5.765625 C 22.125 -5.765625 22.53125 -5.242188 22.53125 -4.203125 C 22.53125 -3.160156 22.515625 -2.378906 22.484375 -1.859375 C 22.347656 -0.679688 21.828125 -0.015625 20.921875 0.140625 C 18.015625 0.566406 15.863281 0.78125 14.46875 0.78125 C 9.613281 0.78125 6.269531 -0.582031 4.4375 -3.3125 C 2.613281 -6.050781 1.703125 -10.988281 1.703125 -18.125 C 1.703125 -23.34375 2.101562 -27.328125 2.90625 -30.078125 C 3.707031 -32.835938 4.992188 -34.769531 6.765625 -35.875 C 8.546875 -36.976562 11.203125 -37.53125 14.734375 -37.53125 C 18.265625 -37.53125 20.847656 -36.976562 22.484375 -35.875 C 22.804688 -35.644531 22.96875 -35.367188 22.96875 -35.046875 C 22.96875 -34.722656 22.8125 -34.109375 22.5 -33.203125 C 22.195312 -32.304688 21.90625 -31.671875 21.625 -31.296875 C 21.351562 -30.929688 21.066406 -30.75 20.765625 -30.75 C 20.472656 -30.75 20.25 -30.765625 20.09375 -30.796875 C 17.644531 -31.285156 15.53125 -31.53125 13.75 -31.53125 C 11.976562 -31.53125 10.820312 -30.550781 10.28125 -28.59375 C 9.75 -26.632812 9.484375 -23.460938 9.484375 -19.078125 C 9.484375 -14.703125 9.597656 -11.648438 9.828125 -9.921875 C 10.054688 -8.191406 10.476562 -6.984375 11.09375 -6.296875 C 11.707031 -5.617188 12.691406 -5.28125 14.046875 -5.28125 C 15.398438 -5.28125 16.929688 -5.359375 18.640625 -5.515625 C 20.359375 -5.679688 21.25 -5.765625 21.3125 -5.765625 Z M 21.3125 -5.765625 "/></g></g></g><g fill="#000000" fill-opacity="1"><g transform="translate(152.073293, 317.526568)"><g><path d="M 18.46875 -22.234375 C 19.78125 -22.234375 20.4375 -21.648438 20.4375 -20.484375 C 20.4375 -18.878906 20.335938 -17.785156 20.140625 -17.203125 C 19.941406 -16.617188 19.4375 -16.328125 18.625 -16.328125 L 9.046875 -16.328125 L 9.046875 -5.90625 L 20.328125 -5.90625 C 21.109375 -5.875 21.644531 -5.71875 21.9375 -5.4375 C 22.238281 -5.164062 22.390625 -4.753906 22.390625 -4.203125 C 22.390625 -2.609375 22.238281 -1.507812 21.9375 -0.90625 C 21.644531 -0.300781 21.0625 0 20.1875 0 L 2.984375 0 L 2.203125 -0.78125 L 2.203125 -36.75 L 19.546875 -36.75 C 20.953125 -36.71875 21.65625 -36.195312 21.65625 -35.1875 C 21.625 -34.3125 21.570312 -33.617188 21.5 -33.109375 C 21.4375 -32.609375 21.234375 -32.113281 20.890625 -31.625 C 20.546875 -31.132812 20.050781 -30.890625 19.40625 -30.890625 L 8.5 -30.890625 L 9.046875 -22.234375 Z M 18.46875 -22.234375 "/></g></g></g></svg>