<svg xmlns="http://www.w3.org/2000/svg" xmlns:xlink="http://www.w3.org/1999/xlink" width="371" zoomAndPan="magnify" viewBox="0 0 278.25 400.499996" height="534" preserveAspectRatio="xMidYMid meet" version="1.0"><defs><g/><clipPath id="ae770c2383"><path d="M 0 0.289062 L 277.109375 0.289062 L 277.109375 399.710938 L 0 399.710938 Z M 0 0.289062 " clip-rule="nonzero"/></clipPath><clipPath id="da5c0332c1"><path d="M 14.210938 0.289062 L 262.894531 0.289062 C 266.664062 0.289062 270.28125 1.785156 272.945312 4.453125 C 275.609375 7.117188 277.109375 10.730469 277.109375 14.5 L 277.109375 385.371094 C 277.109375 389.140625 275.609375 392.753906 272.945312 395.417969 C 270.28125 398.085938 266.664062 399.582031 262.894531 399.582031 L 14.210938 399.582031 C 10.441406 399.582031 6.828125 398.085938 4.164062 395.417969 C 1.496094 392.753906 0 389.140625 0 385.371094 L 0 14.5 C 0 10.730469 1.496094 7.117188 4.164062 4.453125 C 6.828125 1.785156 10.441406 0.289062 14.210938 0.289062 Z M 14.210938 0.289062 " clip-rule="nonzero"/></clipPath><clipPath id="232f521ecc"><path d="M 0 0.289062 L 276.753906 0.289062 L 276.753906 399.710938 L 0 399.710938 Z M 0 0.289062 " clip-rule="nonzero"/></clipPath><clipPath id="b37527ea1f"><path d="M 14.214844 0.289062 L 262.890625 0.289062 C 266.660156 0.289062 270.273438 1.785156 272.941406 4.453125 C 275.605469 7.117188 277.101562 10.730469 277.101562 14.5 L 277.101562 385.359375 C 277.101562 389.128906 275.605469 392.746094 272.941406 395.410156 C 270.273438 398.074219 266.660156 399.570312 262.890625 399.570312 L 14.214844 399.570312 C 10.445312 399.570312 6.828125 398.074219 4.164062 395.410156 C 1.5 392.746094 0 389.128906 0 385.359375 L 0 14.5 C 0 10.730469 1.5 7.117188 4.164062 4.453125 C 6.828125 1.785156 10.445312 0.289062 14.214844 0.289062 Z M 14.214844 0.289062 " clip-rule="nonzero"/></clipPath><clipPath id="b1c306507d"><path d="M 74.265625 79 L 202.917969 79 L 202.917969 200 L 74.265625 200 Z M 74.265625 79 " clip-rule="nonzero"/></clipPath></defs><g clip-path="url(#ae770c2383)"><g clip-path="url(#da5c0332c1)"><path fill="#fdfffc" d="M 0 0.289062 L 277.109375 0.289062 L 277.109375 399.714844 L 0 399.714844 Z M 0 0.289062 " fill-opacity="1" fill-rule="nonzero"/></g></g><g clip-path="url(#232f521ecc)"><g clip-path="url(#b37527ea1f)"><path stroke-linecap="butt" transform="matrix(0.747984, 0, 0, 0.747984, 0.00180259, 0.288986)" fill="none" stroke-linejoin="miter" d="M 19.001804 0.00010165 L 351.463261 0.00010165 C 356.50285 0.00010165 361.333545 2.00027 364.900425 5.567151 C 368.462083 9.128809 370.462252 13.959503 370.462252 18.999093 L 370.462252 514.81114 C 370.462252 519.850729 368.462083 524.686646 364.900425 528.248304 C 361.333545 531.809962 356.50285 533.810131 351.463261 533.810131 L 19.001804 533.810131 C 13.962214 533.810131 9.126297 531.809962 5.564639 528.248304 C 2.002981 524.686646 -0.00240993 519.850729 -0.00240993 514.81114 L -0.00240993 18.999093 C -0.00240993 13.959503 2.002981 9.128809 5.564639 5.567151 C 9.126297 2.00027 13.962214 0.00010165 19.001804 0.00010165 Z M 19.001804 0.00010165 " stroke="#1e2f56" stroke-width="8" stroke-opacity="1" stroke-miterlimit="4"/></g></g><g clip-path="url(#b1c306507d)"><path fill="#dd2e44" d="M 74.132812 112.332031 C 74.132812 76.777344 123.269531 63.601562 138.390625 104.757812 C 153.507812 63.597656 202.648438 76.773438 202.648438 112.332031 C 202.648438 150.964844 138.390625 199.949219 138.390625 199.949219 C 138.390625 199.949219 74.132812 150.964844 74.132812 112.332031 Z M 74.132812 112.332031 " fill-opacity="1" fill-rule="nonzero"/></g><g fill="#000000" fill-opacity="1"><g transform="translate(105.82994, 313.072926)"><g><path d="M 27.65625 0 L 4.09375 0 L 2.984375 -1.109375 L 2.984375 -8.609375 L 10.90625 -8.609375 L 10.90625 -40.921875 L 4.71875 -39.671875 L 2.296875 -47.9375 L 18.625 -52.234375 L 19.734375 -51.125 L 20.84375 -30.015625 L 20.90625 -8.609375 L 26.53125 -8.609375 L 27.65625 -7.5 Z M 27.65625 0 "/></g></g></g><g fill="#000000" fill-opacity="1"><g transform="translate(135.143498, 313.072926)"><g><path d="M 11.953125 -51.546875 C 13.566406 -52.003906 15.601562 -52.234375 18.0625 -52.234375 C 22.1875 -52.234375 25.3125 -51.539062 27.4375 -50.15625 C 29.570312 -48.769531 31.125 -46.195312 32.09375 -42.4375 C 33.0625 -38.6875 33.546875 -33.128906 33.546875 -25.765625 C 33.546875 -15.628906 32.445312 -8.613281 30.25 -4.71875 C 28.050781 -0.832031 24 1.109375 18.09375 1.109375 C 12.1875 1.109375 8.125 -0.832031 5.90625 -4.71875 C 3.6875 -8.613281 2.578125 -15.238281 2.578125 -24.59375 C 2.578125 -33.945312 3.222656 -40.546875 4.515625 -44.390625 C 5.804688 -48.234375 8.285156 -50.617188 11.953125 -51.546875 Z M 12.953125 -36.578125 C 12.742188 -35.117188 12.613281 -33.660156 12.5625 -32.203125 C 12.519531 -30.742188 12.5 -28.207031 12.5 -24.59375 C 12.5 -20.976562 12.601562 -17.96875 12.8125 -15.5625 C 13.019531 -13.15625 13.296875 -11.554688 13.640625 -10.765625 C 13.992188 -9.984375 14.472656 -9.59375 15.078125 -9.59375 C 16.597656 -9.59375 17.765625 -9.625 18.578125 -9.6875 C 19.390625 -9.757812 20.175781 -10.015625 20.9375 -10.453125 C 21.707031 -10.890625 22.242188 -11.382812 22.546875 -11.9375 C 22.847656 -12.5 23.113281 -13.472656 23.34375 -14.859375 C 23.664062 -16.804688 23.828125 -20.234375 23.828125 -25.140625 C 23.828125 -30.054688 23.722656 -33.71875 23.515625 -36.125 C 23.304688 -38.53125 23.015625 -40.140625 22.640625 -40.953125 C 22.273438 -41.765625 21.769531 -42.171875 21.125 -42.171875 C 19.632812 -42.171875 18.460938 -42.125 17.609375 -42.03125 C 16.753906 -41.9375 15.96875 -41.644531 15.25 -41.15625 C 14.53125 -40.675781 14.019531 -40.15625 13.71875 -39.59375 C 13.414062 -39.039062 13.160156 -38.035156 12.953125 -36.578125 Z M 12.953125 -36.578125 "/></g></g></g></svg>