<svg xmlns="http://www.w3.org/2000/svg" xmlns:xlink="http://www.w3.org/1999/xlink" width="371" zoomAndPan="magnify" viewBox="0 0 278.25 400.499996" height="534" preserveAspectRatio="xMidYMid meet" version="1.0"><defs><g/><clipPath id="a82a1aca1e"><path d="M 0 0.289062 L 277.109375 0.289062 L 277.109375 399.710938 L 0 399.710938 Z M 0 0.289062 " clip-rule="nonzero"/></clipPath><clipPath id="1c42b5680e"><path d="M 14.210938 0.289062 L 262.894531 0.289062 C 266.664062 0.289062 270.28125 1.785156 272.945312 4.453125 C 275.609375 7.117188 277.109375 10.730469 277.109375 14.5 L 277.109375 385.371094 C 277.109375 389.140625 275.609375 392.753906 272.945312 395.417969 C 270.28125 398.085938 266.664062 399.582031 262.894531 399.582031 L 14.210938 399.582031 C 10.441406 399.582031 6.828125 398.085938 4.164062 395.417969 C 1.496094 392.753906 0 389.140625 0 385.371094 L 0 14.5 C 0 10.730469 1.496094 7.117188 4.164062 4.453125 C 6.828125 1.785156 10.441406 0.289062 14.210938 0.289062 Z M 14.210938 0.289062 " clip-rule="nonzero"/></clipPath><clipPath id="fcf7b0ce7a"><path d="M 0 0.289062 L 276.753906 0.289062 L 276.753906 399.710938 L 0 399.710938 Z M 0 0.289062 " clip-rule="nonzero"/></clipPath><clipPath id="a4fd94464c"><path d="M 14.214844 0.289062 L 262.890625 0.289062 C 266.660156 0.289062 270.273438 1.785156 272.941406 4.453125 C 275.605469 7.117188 277.101562 10.730469 277.101562 14.5 L 277.101562 385.359375 C 277.101562 389.128906 275.605469 392.746094 272.941406 395.410156 C 270.273438 398.074219 266.660156 399.570312 262.890625 399.570312 L 14.214844 399.570312 C 10.445312 399.570312 6.828125 398.074219 4.164062 395.410156 C 1.5 392.746094 0 389.128906 0 385.359375 L 0 14.5 C 0 10.730469 1.5 7.117188 4.164062 4.453125 C 6.828125 1.785156 10.445312 0.289062 14.214844 0.289062 Z M 14.214844 0.289062 " clip-rule="nonzero"/></clipPath><clipPath id="0e112a3257"><path d="M 74.265625 79 L 202.917969 79 L 202.917969 200 L 74.265625 200 Z M 74.265625 79 " clip-rule="nonzero"/></clipPath></defs><g clip-path="url(#a82a1aca1e)"><g clip-path="url(#1c42b5680e)"><path fill="#fdfffc" d="M 0 0.289062 L 277.109375 0.289062 L 277.109375 399.714844 L 0 399.714844 Z M 0 0.289062 " fill-opacity="1" fill-rule="nonzero"/></g></g><g clip-path="url(#fcf7b0ce7a)"><g clip-path="url(#a4fd94464c)"><path stroke-linecap="butt" transform="matrix(0.747984, 0, 0, 0.747984, 0.00180259, 0.288986)" fill="none" stroke-linejoin="miter" d="M 19.001804 0.00010165 L 351.463261 0.00010165 C 356.50285 0.00010165 361.333545 2.00027 364.900425 5.567151 C 368.462083 9.128809 370.462252 13.959503 370.462252 18.999093 L 370.462252 514.81114 C 370.462252 519.850729 368.462083 524.686646 364.900425 528.248304 C 361.333545 531.809962 356.50285 533.810131 351.463261 533.810131 L 19.001804 533.810131 C 13.962214 533.810131 9.126297 531.809962 5.564639 528.248304 C 2.002981 524.686646 -0.00240993 519.850729 -0.00240993 514.81114 L -0.00240993 18.999093 C -0.00240993 13.959503 2.002981 9.128809 5.564639 5.567151 C 9.126297 2.00027 13.962214 0.00010165 19.001804 0.00010165 Z M 19.001804 0.00010165 " stroke="#1e2f56" stroke-width="8" stroke-opacity="1" stroke-miterlimit="4"/></g></g><g clip-path="url(#0e112a3257)"><path fill="#dd2e44" d="M 74.132812 112.332031 C 74.132812 76.777344 123.269531 63.601562 138.390625 104.757812 C 153.507812 63.597656 202.648438 76.773438 202.648438 112.332031 C 202.648438 150.964844 138.390625 199.949219 138.390625 199.949219 C 138.390625 199.949219 74.132812 150.964844 74.132812 112.332031 Z M 74.132812 112.332031 " fill-opacity="1" fill-rule="nonzero"/></g><g fill="#000000" fill-opacity="1"><g transform="translate(123.204875, 313.072926)"><g><path d="M 3.0625 -52.234375 L 25.640625 -52.234375 L 26.75 -51.125 L 26.75 -43.625 L 11.53125 -43.625 L 12.71875 -31.53125 C 13.175781 -31.488281 13.945312 -31.429688 15.03125 -31.359375 C 16.125 -31.296875 16.925781 -31.238281 17.4375 -31.1875 C 17.945312 -31.144531 18.617188 -31.066406 19.453125 -30.953125 C 20.285156 -30.835938 20.929688 -30.707031 21.390625 -30.5625 C 22.597656 -30.289062 23.503906 -29.898438 24.109375 -29.390625 C 26.972656 -27.023438 28.40625 -22.460938 28.40625 -15.703125 C 28.40625 -4.492188 22.109375 1.109375 9.515625 1.109375 C 8.585938 1.109375 7.601562 1.023438 6.5625 0.859375 C 5.519531 0.703125 4.398438 0.554688 3.203125 0.421875 L 3.203125 -8.203125 C 7.640625 -7.921875 9.90625 -7.78125 10 -7.78125 C 13.332031 -7.78125 15.453125 -8.320312 16.359375 -9.40625 C 17.265625 -10.5 17.71875 -12.257812 17.71875 -14.6875 C 17.71875 -17.125 17.671875 -18.722656 17.578125 -19.484375 C 17.484375 -20.242188 17.179688 -20.9375 16.671875 -21.5625 C 16.160156 -22.195312 15.441406 -22.582031 14.515625 -22.71875 C 13.585938 -22.851562 12.222656 -22.921875 10.421875 -22.921875 L 4.171875 -22.921875 L 3.0625 -24.03125 Z M 3.0625 -52.234375 "/></g></g></g></svg>