<svg xmlns="http://www.w3.org/2000/svg" xmlns:xlink="http://www.w3.org/1999/xlink" width="371" zoomAndPan="magnify" viewBox="0 0 278.25 400.499996" height="534" preserveAspectRatio="xMidYMid meet" version="1.0"><defs><g/><clipPath id="debf5e8f1c"><path d="M 0 0.289062 L 277.109375 0.289062 L 277.109375 399.710938 L 0 399.710938 Z M 0 0.289062 " clip-rule="nonzero"/></clipPath><clipPath id="28f83dd241"><path d="M 14.210938 0.289062 L 262.894531 0.289062 C 266.664062 0.289062 270.28125 1.785156 272.945312 4.453125 C 275.609375 7.117188 277.109375 10.730469 277.109375 14.5 L 277.109375 385.371094 C 277.109375 389.140625 275.609375 392.753906 272.945312 395.417969 C 270.28125 398.085938 266.664062 399.582031 262.894531 399.582031 L 14.210938 399.582031 C 10.441406 399.582031 6.828125 398.085938 4.164062 395.417969 C 1.496094 392.753906 0 389.140625 0 385.371094 L 0 14.5 C 0 10.730469 1.496094 7.117188 4.164062 4.453125 C 6.828125 1.785156 10.441406 0.289062 14.210938 0.289062 Z M 14.210938 0.289062 " clip-rule="nonzero"/></clipPath><clipPath id="ad396a1db6"><path d="M 0 0.289062 L 276.753906 0.289062 L 276.753906 399.710938 L 0 399.710938 Z M 0 0.289062 " clip-rule="nonzero"/></clipPath><clipPath id="7633d1cd43"><path d="M 14.214844 0.289062 L 262.890625 0.289062 C 266.660156 0.289062 270.273438 1.785156 272.941406 4.453125 C 275.605469 7.117188 277.101562 10.730469 277.101562 14.5 L 277.101562 385.359375 C 277.101562 389.128906 275.605469 392.746094 272.941406 395.410156 C 270.273438 398.074219 266.660156 399.570312 262.890625 399.570312 L 14.214844 399.570312 C 10.445312 399.570312 6.828125 398.074219 4.164062 395.410156 C 1.5 392.746094 0 389.128906 0 385.359375 L 0 14.5 C 0 10.730469 1.5 7.117188 4.164062 4.453125 C 6.828125 1.785156 10.445312 0.289062 14.214844 0.289062 Z M 14.214844 0.289062 " clip-rule="nonzero"/></clipPath></defs><g clip-path="url(#debf5e8f1c)"><g clip-path="url(#28f83dd241)"><path fill="#fdfffc" d="M 0 0.289062 L 277.109375 0.289062 L 277.109375 399.714844 L 0 399.714844 Z M 0 0.289062 " fill-opacity="1" fill-rule="nonzero"/></g></g><g clip-path="url(#ad396a1db6)"><g clip-path="url(#7633d1cd43)"><path stroke-linecap="butt" transform="matrix(0.747984, 0, 0, 0.747984, 0.00180259, 0.288986)" fill="none" stroke-linejoin="miter" d="M 19.001804 0.00010165 L 351.463261 0.00010165 C 356.50285 0.00010165 361.333545 2.00027 364.900425 5.567151 C 368.462083 9.128809 370.462252 13.959503 370.462252 18.999093 L 370.462252 514.81114 C 370.462252 519.850729 368.462083 524.686646 364.900425 528.248304 C 361.333545 531.809962 356.50285 533.810131 351.463261 533.810131 L 19.001804 533.810131 C 13.962214 533.810131 9.126297 531.809962 5.564639 528.248304 C 2.002981 524.686646 -0.00240993 519.850729 -0.00240993 514.81114 L -0.00240993 18.999093 C -0.00240993 13.959503 2.002981 9.128809 5.564639 5.567151 C 9.126297 2.00027 13.962214 0.00010165 19.001804 0.00010165 Z M 19.001804 0.00010165 " stroke="#1e2f56" stroke-width="8" stroke-opacity="1" stroke-miterlimit="4"/></g></g><path fill="#d40000" d="M 98.84375 128.738281 C 98.84375 128.738281 94.238281 99.191406 105.582031 83.261719 C 116.929688 67.332031 129.527344 67.699219 139.675781 67.480469 C 149.824219 67.257812 163.875 66.824219 165.019531 67.972656 C 166.160156 69.125 164.011719 71.988281 164.011719 71.988281 C 164.011719 71.988281 154.015625 69.671875 148.449219 75.320312 C 142.882812 80.96875 133.539062 91.167969 144.683594 106.277344 L 155.828125 121.386719 L 140.144531 149.085938 Z M 98.84375 128.738281 " fill-opacity="1" fill-rule="nonzero"/><path fill="#008033" d="M 104.035156 172.859375 C 104.035156 172.859375 89.710938 145.914062 75.828125 153.167969 C 61.941406 160.421875 61.722656 187.515625 61.722656 187.515625 L 58.449219 187.351562 C 58.449219 187.351562 52.621094 148.984375 58.558594 133.875 C 64.5 118.769531 76.976562 103.160156 110.796875 125.921875 C 144.621094 148.683594 147.488281 159.355469 147.488281 159.355469 Z M 104.035156 172.859375 " fill-opacity="1" fill-rule="nonzero"/><path fill="#2c5aa0" d="M 168.527344 155.589844 C 168.527344 155.589844 171.015625 126.847656 186.671875 126.191406 C 202.328125 125.535156 214.605469 144.085938 214.605469 144.085938 L 217.675781 141.183594 C 217.675781 141.183594 215.148438 118.425781 202.953125 107.691406 C 179.214844 86.804688 158.675781 108.519531 143.75 122.292969 C 132.65625 132.527344 129.449219 165.21875 129.449219 165.21875 Z M 168.527344 155.589844 " fill-opacity="1" fill-rule="nonzero"/><path fill="#d4aa00" d="M 106 180.945312 C 104.847656 177.75 101.222656 171.933594 101.222656 171.933594 C 101.222656 171.933594 120.785156 162.449219 131.25 159.777344 C 143.230469 156.714844 168.105469 155.496094 168.105469 155.496094 C 168.105469 155.496094 168.25 163.832031 168.800781 167.957031 C 169.292969 171.621094 171.128906 178.804688 171.128906 178.804688 C 171.128906 178.804688 149.097656 179.6875 138.539062 182.53125 C 128.164062 185.316406 109.011719 195.433594 109.011719 195.433594 C 108.867188 190.523438 107.675781 185.585938 106 180.945312 Z M 106 180.945312 " fill-opacity="1" fill-rule="nonzero"/><path fill="#d4aa00" d="M 179.679688 68.289062 C 181.0625 73.441406 178 78.738281 172.839844 80.121094 C 167.679688 81.503906 162.371094 78.445312 160.988281 73.292969 C 159.605469 68.140625 162.664062 62.84375 167.828125 61.464844 C 172.988281 60.082031 178.292969 63.136719 179.679688 68.289062 Z M 179.679688 68.289062 " fill-opacity="1" fill-rule="nonzero"/><path fill="#d4aa00" d="M 227.183594 146.171875 C 228.566406 151.324219 225.503906 156.621094 220.34375 158.003906 C 215.183594 159.382812 209.875 156.328125 208.492188 151.175781 C 207.109375 146.023438 210.171875 140.726562 215.332031 139.34375 C 220.492188 137.964844 225.800781 141.019531 227.183594 146.171875 Z M 227.183594 146.171875 " fill-opacity="1" fill-rule="nonzero"/><path fill="#d4aa00" d="M 68.546875 189.746094 C 69.929688 194.898438 66.867188 200.191406 61.707031 201.574219 C 56.546875 202.957031 51.238281 199.898438 49.855469 194.75 C 48.472656 189.597656 51.535156 184.300781 56.695312 182.917969 C 61.855469 181.535156 67.160156 184.59375 68.546875 189.746094 Z M 68.546875 189.746094 " fill-opacity="1" fill-rule="nonzero"/><g fill="#000000" fill-opacity="1"><g transform="translate(77.854584, 317.526568)"><g><path d="M 1.5625 5.515625 C 3 5.515625 3.960938 4.535156 4.453125 2.578125 C 4.941406 0.628906 5.1875 -2.882812 5.1875 -7.96875 L 5.234375 -35.78125 C 5.234375 -36.5 5.398438 -36.96875 5.734375 -37.1875 C 6.078125 -37.414062 6.738281 -37.53125 7.71875 -37.53125 C 10.0625 -37.53125 11.253906 -36.929688 11.296875 -35.734375 L 12.078125 -21.109375 L 12.078125 -8.0625 C 12.078125 -2.550781 11.734375 1.601562 11.046875 4.40625 C 10.617188 6.03125 10.015625 7.28125 9.234375 8.15625 C 7.578125 10.019531 5.019531 10.953125 1.5625 10.953125 C 0.976562 10.921875 0.578125 10.695312 0.359375 10.28125 C 0.148438 9.875 0.0351562 9.175781 0.015625 8.1875 C 0.00390625 7.195312 0.117188 6.503906 0.359375 6.109375 C 0.609375 5.710938 1.007812 5.515625 1.5625 5.515625 Z M 1.5625 5.515625 "/></g></g></g><g fill="#000000" fill-opacity="1"><g transform="translate(91.974682, 317.526568)"><g><path d="M 1.8125 -18.125 C 1.8125 -23.3125 2.21875 -27.289062 3.03125 -30.0625 C 3.84375 -32.832031 5.132812 -34.769531 6.90625 -35.875 C 8.6875 -36.976562 11.253906 -37.53125 14.609375 -37.53125 C 17.960938 -37.53125 20.523438 -36.976562 22.296875 -35.875 C 24.078125 -34.769531 25.367188 -32.835938 26.171875 -30.078125 C 26.972656 -27.328125 27.375 -23.34375 27.375 -18.125 C 27.375 -10.988281 26.457031 -6.050781 24.625 -3.3125 C 22.800781 -0.582031 19.460938 0.78125 14.609375 0.78125 C 9.753906 0.78125 6.40625 -0.582031 4.5625 -3.3125 C 2.726562 -6.050781 1.8125 -10.988281 1.8125 -18.125 Z M 9.96875 -27.25 C 9.769531 -26.03125 9.65625 -24.789062 9.625 -23.53125 C 9.59375 -22.28125 9.578125 -20.15625 9.578125 -17.15625 C 9.578125 -14.15625 9.675781 -11.644531 9.875 -9.625 C 10.070312 -7.601562 10.332031 -6.273438 10.65625 -5.640625 C 10.976562 -5.003906 11.414062 -4.6875 11.96875 -4.6875 C 14.84375 -4.6875 16.71875 -4.984375 17.59375 -5.578125 C 17.914062 -5.796875 18.234375 -6.164062 18.546875 -6.6875 C 18.859375 -7.21875 19.078125 -7.757812 19.203125 -8.3125 C 19.335938 -8.863281 19.453125 -9.675781 19.546875 -10.75 C 19.679688 -12.15625 19.75 -14.671875 19.75 -18.296875 C 19.75 -21.929688 19.65625 -24.800781 19.46875 -26.90625 C 19.289062 -29.007812 19.03125 -30.441406 18.6875 -31.203125 C 18.351562 -31.972656 17.90625 -32.359375 17.34375 -32.359375 C 16.039062 -32.359375 14.988281 -32.300781 14.1875 -32.1875 C 13.394531 -32.070312 12.6875 -31.789062 12.0625 -31.34375 C 11.445312 -30.90625 10.992188 -30.414062 10.703125 -29.875 C 10.410156 -29.34375 10.164062 -28.46875 9.96875 -27.25 Z M 9.96875 -27.25 "/></g></g></g><g fill="#000000" fill-opacity="1"><g transform="translate(121.143178, 317.526568)"><g><path d="M 17.6875 -35.78125 C 18.175781 -36.945312 19.507812 -37.53125 21.6875 -37.53125 C 23.875 -37.53125 24.96875 -37.125 24.96875 -36.3125 C 24.96875 -36.144531 24.921875 -35.96875 24.828125 -35.78125 L 17.453125 -20.375 L 26.78125 -1.03125 C 27.007812 -0.539062 27.125 -0.191406 27.125 0.015625 C 27.125 0.234375 27.066406 0.414062 26.953125 0.5625 C 26.835938 0.707031 26.203125 0.78125 25.046875 0.78125 C 23.890625 0.78125 22.648438 0.640625 21.328125 0.359375 C 20.015625 0.0859375 19.210938 -0.375 18.921875 -1.03125 L 10.359375 -18.859375 L 10.359375 -20.328125 Z M 2.203125 -0.984375 L 2.203125 -35.734375 C 2.203125 -36.441406 2.378906 -36.914062 2.734375 -37.15625 C 3.097656 -37.40625 3.765625 -37.53125 4.734375 -37.53125 C 7.085938 -37.53125 8.28125 -36.910156 8.3125 -35.671875 L 9.046875 -21.109375 L 9.09375 -1.078125 C 9.09375 -0.492188 9.0625 -0.101562 9 0.09375 C 8.894531 0.550781 8.273438 0.78125 7.140625 0.78125 C 3.847656 0.78125 2.203125 0.191406 2.203125 -0.984375 Z M 2.203125 -0.984375 "/></g></g></g><g fill="#000000" fill-opacity="1"><g transform="translate(149.627655, 317.526568)"><g><path d="M 18.46875 -22.234375 C 19.78125 -22.234375 20.4375 -21.648438 20.4375 -20.484375 C 20.4375 -18.878906 20.335938 -17.785156 20.140625 -17.203125 C 19.941406 -16.617188 19.4375 -16.328125 18.625 -16.328125 L 9.046875 -16.328125 L 9.046875 -5.90625 L 20.328125 -5.90625 C 21.109375 -5.875 21.644531 -5.71875 21.9375 -5.4375 C 22.238281 -5.164062 22.390625 -4.753906 22.390625 -4.203125 C 22.390625 -2.609375 22.238281 -1.507812 21.9375 -0.90625 C 21.644531 -0.300781 21.0625 0 20.1875 0 L 2.984375 0 L 2.203125 -0.78125 L 2.203125 -36.75 L 19.546875 -36.75 C 20.953125 -36.71875 21.65625 -36.195312 21.65625 -35.1875 C 21.625 -34.3125 21.570312 -33.617188 21.5 -33.109375 C 21.4375 -32.609375 21.234375 -32.113281 20.890625 -31.625 C 20.546875 -31.132812 20.050781 -30.890625 19.40625 -30.890625 L 8.5 -30.890625 L 9.046875 -22.234375 Z M 18.46875 -22.234375 "/></g></g></g><g fill="#000000" fill-opacity="1"><g transform="translate(173.226288, 317.526568)"><g><path d="M 2.203125 -1.171875 L 2.203125 -36.75 C 5.523438 -37.269531 8.40625 -37.53125 10.84375 -37.53125 C 15.375 -37.53125 18.503906 -36.679688 20.234375 -34.984375 C 21.960938 -33.296875 22.828125 -30.5 22.828125 -26.59375 C 22.828125 -21.113281 21.296875 -17.460938 18.234375 -15.640625 L 24.390625 -1.703125 C 24.742188 -0.890625 24.921875 -0.359375 24.921875 -0.109375 C 24.921875 0.128906 24.890625 0.28125 24.828125 0.34375 C 24.703125 0.632812 24.148438 0.78125 23.171875 0.78125 C 20.003906 0.78125 18.144531 0.160156 17.59375 -1.078125 L 12.015625 -13.984375 C 11.203125 -13.910156 9.984375 -13.875 8.359375 -13.875 L 8.359375 -1.265625 C 8.359375 -0.359375 8.265625 0.207031 8.078125 0.4375 C 7.898438 0.664062 7.34375 0.78125 6.40625 0.78125 C 3.601562 0.78125 2.203125 0.128906 2.203125 -1.171875 Z M 9.140625 -20.578125 C 11.742188 -20.578125 13.5 -20.941406 14.40625 -21.671875 C 15.320312 -22.410156 15.78125 -24.066406 15.78125 -26.640625 C 15.78125 -28.203125 15.523438 -29.4375 15.015625 -30.34375 C 14.515625 -31.257812 13.957031 -31.71875 13.34375 -31.71875 C 11.03125 -31.71875 9.617188 -31.664062 9.109375 -31.5625 C 8.609375 -31.46875 8.359375 -31.144531 8.359375 -30.59375 L 8.359375 -21.3125 C 8.359375 -20.882812 8.4375 -20.65625 8.59375 -20.625 C 8.757812 -20.59375 8.941406 -20.578125 9.140625 -20.578125 Z M 9.140625 -20.578125 "/></g></g></g></svg>