<svg xmlns="http://www.w3.org/2000/svg" xmlns:xlink="http://www.w3.org/1999/xlink" width="371" zoomAndPan="magnify" viewBox="0 0 278.25 400.499996" height="534" preserveAspectRatio="xMidYMid meet" version="1.0"><defs><g/><clipPath id="fb2bed095a"><path d="M 0 0.289062 L 277.109375 0.289062 L 277.109375 399.710938 L 0 399.710938 Z M 0 0.289062 " clip-rule="nonzero"/></clipPath><clipPath id="e6146060bb"><path d="M 14.210938 0.289062 L 262.894531 0.289062 C 266.664062 0.289062 270.28125 1.785156 272.945312 4.453125 C 275.609375 7.117188 277.109375 10.730469 277.109375 14.5 L 277.109375 385.371094 C 277.109375 389.140625 275.609375 392.753906 272.945312 395.417969 C 270.28125 398.085938 266.664062 399.582031 262.894531 399.582031 L 14.210938 399.582031 C 10.441406 399.582031 6.828125 398.085938 4.164062 395.417969 C 1.496094 392.753906 0 389.140625 0 385.371094 L 0 14.5 C 0 10.730469 1.496094 7.117188 4.164062 4.453125 C 6.828125 1.785156 10.441406 0.289062 14.210938 0.289062 Z M 14.210938 0.289062 " clip-rule="nonzero"/></clipPath><clipPath id="cc67f7fb90"><path d="M 0 0.289062 L 276.753906 0.289062 L 276.753906 399.710938 L 0 399.710938 Z M 0 0.289062 " clip-rule="nonzero"/></clipPath><clipPath id="a237c83234"><path d="M 14.214844 0.289062 L 262.890625 0.289062 C 266.660156 0.289062 270.273438 1.785156 272.941406 4.453125 C 275.605469 7.117188 277.101562 10.730469 277.101562 14.5 L 277.101562 385.359375 C 277.101562 389.128906 275.605469 392.746094 272.941406 395.410156 C 270.273438 398.074219 266.660156 399.570312 262.890625 399.570312 L 14.214844 399.570312 C 10.445312 399.570312 6.828125 398.074219 4.164062 395.410156 C 1.5 392.746094 0 389.128906 0 385.359375 L 0 14.5 C 0 10.730469 1.5 7.117188 4.164062 4.453125 C 6.828125 1.785156 10.445312 0.289062 14.214844 0.289062 Z M 14.214844 0.289062 " clip-rule="nonzero"/></clipPath><clipPath id="3aa5df7479"><path d="M 109 63.414062 L 168 63.414062 L 168 120 L 109 120 Z M 109 63.414062 " clip-rule="nonzero"/></clipPath><clipPath id="7ea5bee091"><path d="M 104 153 L 173 153 L 173 200.296875 L 104 200.296875 Z M 104 153 " clip-rule="nonzero"/></clipPath></defs><g clip-path="url(#fb2bed095a)"><g clip-path="url(#e6146060bb)"><path fill="#fdfffc" d="M 0 0.289062 L 277.109375 0.289062 L 277.109375 399.714844 L 0 399.714844 Z M 0 0.289062 " fill-opacity="1" fill-rule="nonzero"/></g></g><g clip-path="url(#cc67f7fb90)"><g clip-path="url(#a237c83234)"><path stroke-linecap="butt" transform="matrix(0.747984, 0, 0, 0.747984, 0.00180259, 0.288986)" fill="none" stroke-linejoin="miter" d="M 19.001804 0.00010165 L 351.463261 0.00010165 C 356.50285 0.00010165 361.333545 2.00027 364.900425 5.567151 C 368.462083 9.128809 370.462252 13.959503 370.462252 18.999093 L 370.462252 514.81114 C 370.462252 519.850729 368.462083 524.686646 364.900425 528.248304 C 361.333545 531.809962 356.50285 533.810131 351.463261 533.810131 L 19.001804 533.810131 C 13.962214 533.810131 9.126297 531.809962 5.564639 528.248304 C 2.002981 524.686646 -0.00240993 519.850729 -0.00240993 514.81114 L -0.00240993 18.999093 C -0.00240993 13.959503 2.002981 9.128809 5.564639 5.567151 C 9.126297 2.00027 13.962214 0.00010165 19.001804 0.00010165 Z M 19.001804 0.00010165 " stroke="#1e2f56" stroke-width="8" stroke-opacity="1" stroke-miterlimit="4"/></g></g><g clip-path="url(#3aa5df7479)"><path fill="#000000" d="M 167.109375 91.566406 C 167.109375 107.171875 154.128906 119.8125 138.101562 119.8125 C 122.074219 119.8125 109.09375 107.171875 109.09375 91.566406 C 109.09375 75.972656 122.082031 63.328125 138.101562 63.328125 C 154.121094 63.328125 167.109375 75.972656 167.109375 91.566406 Z M 167.109375 91.566406 " fill-opacity="1" fill-rule="nonzero"/></g><path fill="#000000" d="M 204.476562 145.007812 C 204.476562 160.609375 191.488281 173.25 175.464844 173.25 C 159.441406 173.25 146.457031 160.609375 146.457031 145.007812 C 146.457031 129.410156 159.441406 116.765625 175.464844 116.765625 C 191.488281 116.765625 204.476562 129.410156 204.476562 145.007812 Z M 204.476562 145.007812 " fill-opacity="1" fill-rule="nonzero"/><path fill="#000000" d="M 130.179688 145.253906 C 130.179688 150.964844 128.4375 156.28125 125.441406 160.722656 C 120.261719 168.417969 111.320312 173.492188 101.164062 173.492188 C 85.144531 173.492188 72.160156 160.851562 72.160156 145.253906 C 72.160156 129.65625 85.144531 117.011719 101.164062 117.011719 C 117.1875 117.011719 130.179688 129.65625 130.179688 145.253906 Z M 130.179688 145.253906 " fill-opacity="1" fill-rule="nonzero"/><g clip-path="url(#7ea5bee091)"><path fill="#000000" d="M 172.125 200.054688 C 157.800781 200.0625 150.265625 188.367188 146.308594 176.675781 C 142.351562 164.984375 141.984375 153.277344 141.984375 153.277344 L 134.671875 153.21875 C 134.671875 153.21875 133.300781 200.019531 104.65625 200.042969 L 172.128906 200.054688 Z M 172.125 200.054688 " fill-opacity="1" fill-rule="nonzero"/></g><path fill="#000000" d="M 118.382812 112.316406 C 134.675781 128.671875 134.675781 153.226562 134.675781 153.226562 L 141.984375 153.285156 C 141.984375 153.285156 141.984375 128.210938 157.824219 112.316406 " fill-opacity="1" fill-rule="nonzero"/><path fill="#000000" d="M 121.644531 164.84375 C 137.9375 148.488281 162.402344 148.488281 162.402344 148.488281 L 162.460938 141.152344 C 162.460938 141.152344 137.476562 141.152344 121.644531 125.257812 " fill-opacity="1" fill-rule="nonzero"/><path fill="#000000" d="M 154.320312 164.96875 C 138.027344 148.613281 113.5625 148.613281 113.5625 148.613281 L 113.503906 141.277344 C 113.503906 141.277344 138.484375 141.277344 154.320312 125.378906 " fill-opacity="1" fill-rule="nonzero"/><g fill="#000000" fill-opacity="1"><g transform="translate(89.730324, 317.526568)"><g><path d="M 17.6875 -35.78125 C 18.175781 -36.945312 19.507812 -37.53125 21.6875 -37.53125 C 23.875 -37.53125 24.96875 -37.125 24.96875 -36.3125 C 24.96875 -36.144531 24.921875 -35.96875 24.828125 -35.78125 L 17.453125 -20.375 L 26.78125 -1.03125 C 27.007812 -0.539062 27.125 -0.191406 27.125 0.015625 C 27.125 0.234375 27.066406 0.414062 26.953125 0.5625 C 26.835938 0.707031 26.203125 0.78125 25.046875 0.78125 C 23.890625 0.78125 22.648438 0.640625 21.328125 0.359375 C 20.015625 0.0859375 19.210938 -0.375 18.921875 -1.03125 L 10.359375 -18.859375 L 10.359375 -20.328125 Z M 2.203125 -0.984375 L 2.203125 -35.734375 C 2.203125 -36.441406 2.378906 -36.914062 2.734375 -37.15625 C 3.097656 -37.40625 3.765625 -37.53125 4.734375 -37.53125 C 7.085938 -37.53125 8.28125 -36.910156 8.3125 -35.671875 L 9.046875 -21.109375 L 9.09375 -1.078125 C 9.09375 -0.492188 9.0625 -0.101562 9 0.09375 C 8.894531 0.550781 8.273438 0.78125 7.140625 0.78125 C 3.847656 0.78125 2.203125 0.191406 2.203125 -0.984375 Z M 2.203125 -0.984375 "/></g></g></g><g fill="#000000" fill-opacity="1"><g transform="translate(118.214802, 317.526568)"><g><path d="M 2.890625 -5.90625 L 4.640625 -5.90625 L 4.640625 -30.890625 L 3.171875 -30.890625 C 2.523438 -30.921875 2.085938 -31.132812 1.859375 -31.53125 C 1.628906 -31.976562 1.515625 -32.804688 1.515625 -34.015625 C 1.515625 -35.835938 2.050781 -36.75 3.125 -36.75 L 11.78125 -36.75 C 13.207031 -36.75 13.921875 -36.242188 13.921875 -35.234375 C 13.921875 -32.335938 13.351562 -30.890625 12.21875 -30.890625 L 11 -30.890625 L 11.484375 -21.109375 L 11.53125 -5.90625 L 13 -5.90625 C 14.144531 -5.875 14.71875 -5.351562 14.71875 -4.34375 C 14.644531 -1.445312 13.84375 0 12.3125 0 L 3.078125 0 C 2.492188 -0.03125 2.085938 -0.242188 1.859375 -0.640625 C 1.628906 -1.085938 1.515625 -1.929688 1.515625 -3.171875 C 1.515625 -4.992188 1.972656 -5.90625 2.890625 -5.90625 Z M 2.890625 -5.90625 "/></g></g></g><g fill="#000000" fill-opacity="1"><g transform="translate(134.093803, 317.526568)"><g><path d="M 2.203125 -1.171875 L 2.203125 -35.734375 C 2.203125 -36.929688 3.375 -37.53125 5.71875 -37.53125 C 6.207031 -37.53125 6.585938 -37.515625 6.859375 -37.484375 C 7.140625 -37.453125 7.488281 -37.296875 7.90625 -37.015625 C 8.332031 -36.742188 8.710938 -36.347656 9.046875 -35.828125 L 17.796875 -15.296875 L 17.5 -35.78125 C 17.5 -36.945312 18.671875 -37.53125 21.015625 -37.53125 C 21.992188 -37.53125 22.660156 -37.414062 23.015625 -37.1875 C 23.378906 -36.96875 23.578125 -36.5 23.609375 -35.78125 L 24.390625 -21.0625 L 24.390625 -1.03125 C 24.390625 -0.476562 24.375 -0.101562 24.34375 0.09375 C 24.207031 0.550781 23.570312 0.78125 22.4375 0.78125 C 20.3125 0.78125 19.039062 0.175781 18.625 -1.03125 L 9 -21.3125 L 9.046875 -1.078125 C 9.046875 -0.492188 9.03125 -0.101562 9 0.09375 C 8.863281 0.550781 8.226562 0.78125 7.09375 0.78125 C 3.832031 0.78125 2.203125 0.128906 2.203125 -1.171875 Z M 2.203125 -1.171875 "/></g></g></g><g fill="#000000" fill-opacity="1"><g transform="translate(160.623936, 317.526568)"><g><path d="M 14.5625 0.78125 C 9.707031 0.78125 6.359375 -0.582031 4.515625 -3.3125 C 2.679688 -6.050781 1.765625 -10.988281 1.765625 -18.125 C 1.765625 -23.3125 2.171875 -27.289062 2.984375 -30.0625 C 3.796875 -32.832031 5.085938 -34.769531 6.859375 -35.875 C 8.640625 -36.976562 11.160156 -37.53125 14.421875 -37.53125 C 17.679688 -37.53125 20.1875 -37.09375 21.9375 -36.21875 C 22.65625 -35.851562 23.015625 -35.363281 23.015625 -34.75 C 23.015625 -34.550781 22.859375 -33.992188 22.546875 -33.078125 C 22.242188 -32.171875 21.953125 -31.554688 21.671875 -31.234375 C 21.398438 -30.910156 21.097656 -30.75 20.765625 -30.75 C 20.441406 -30.75 19.535156 -30.878906 18.046875 -31.140625 C 16.566406 -31.398438 15.304688 -31.53125 14.265625 -31.53125 C 13.222656 -31.53125 12.472656 -31.429688 12.015625 -31.234375 C 11.566406 -31.035156 11.191406 -30.664062 10.890625 -30.125 C 10.597656 -29.59375 10.363281 -29.023438 10.1875 -28.421875 C 10.007812 -27.816406 9.875 -26.945312 9.78125 -25.8125 C 9.644531 -24.28125 9.578125 -21.253906 9.578125 -16.734375 C 9.578125 -12.222656 9.84375 -9.1875 10.375 -7.625 C 10.914062 -6.0625 12.164062 -5.28125 14.125 -5.28125 L 18.125 -5.515625 L 18.125 -16.171875 C 18.164062 -16.828125 18.390625 -17.257812 18.796875 -17.46875 C 19.203125 -17.6875 19.925781 -17.800781 20.96875 -17.8125 C 22.007812 -17.832031 22.789062 -17.703125 23.3125 -17.421875 C 23.832031 -17.148438 24.125 -16.585938 24.1875 -15.734375 L 25.03125 -6.15625 L 25.03125 0 C 20.882812 0.519531 17.394531 0.78125 14.5625 0.78125 Z M 14.5625 0.78125 "/></g></g></g></svg>