<svg xmlns="http://www.w3.org/2000/svg" xmlns:xlink="http://www.w3.org/1999/xlink" width="371" zoomAndPan="magnify" viewBox="0 0 278.25 400.499996" height="534" preserveAspectRatio="xMidYMid meet" version="1.0"><defs><g/><clipPath id="c0d6eca8fe"><path d="M 0 0.289062 L 277.109375 0.289062 L 277.109375 399.710938 L 0 399.710938 Z M 0 0.289062 " clip-rule="nonzero"/></clipPath><clipPath id="4cf898357d"><path d="M 14.210938 0.289062 L 262.894531 0.289062 C 266.664062 0.289062 270.28125 1.785156 272.945312 4.453125 C 275.609375 7.117188 277.109375 10.730469 277.109375 14.5 L 277.109375 385.371094 C 277.109375 389.140625 275.609375 392.753906 272.945312 395.417969 C 270.28125 398.085938 266.664062 399.582031 262.894531 399.582031 L 14.210938 399.582031 C 10.441406 399.582031 6.828125 398.085938 4.164062 395.417969 C 1.496094 392.753906 0 389.140625 0 385.371094 L 0 14.5 C 0 10.730469 1.496094 7.117188 4.164062 4.453125 C 6.828125 1.785156 10.441406 0.289062 14.210938 0.289062 Z M 14.210938 0.289062 " clip-rule="nonzero"/></clipPath><clipPath id="faaea630b5"><path d="M 0 0.289062 L 276.753906 0.289062 L 276.753906 399.710938 L 0 399.710938 Z M 0 0.289062 " clip-rule="nonzero"/></clipPath><clipPath id="32053786f6"><path d="M 14.214844 0.289062 L 262.890625 0.289062 C 266.660156 0.289062 270.273438 1.785156 272.941406 4.453125 C 275.605469 7.117188 277.101562 10.730469 277.101562 14.5 L 277.101562 385.359375 C 277.101562 389.128906 275.605469 392.746094 272.941406 395.410156 C 270.273438 398.074219 266.660156 399.570312 262.890625 399.570312 L 14.214844 399.570312 C 10.445312 399.570312 6.828125 398.074219 4.164062 395.410156 C 1.5 392.746094 0 389.128906 0 385.359375 L 0 14.5 C 0 10.730469 1.5 7.117188 4.164062 4.453125 C 6.828125 1.785156 10.445312 0.289062 14.214844 0.289062 Z M 14.214844 0.289062 " clip-rule="nonzero"/></clipPath><clipPath id="68af2269f2"><path d="M 89.15625 63.414062 L 187 63.414062 L 187 200 L 89.15625 200 Z M 89.15625 63.414062 " clip-rule="nonzero"/></clipPath></defs><g clip-path="url(#c0d6eca8fe)"><g clip-path="url(#4cf898357d)"><path fill="#fdfffc" d="M 0 0.289062 L 277.109375 0.289062 L 277.109375 399.714844 L 0 399.714844 Z M 0 0.289062 " fill-opacity="1" fill-rule="nonzero"/></g></g><g clip-path="url(#faaea630b5)"><g clip-path="url(#32053786f6)"><path stroke-linecap="butt" transform="matrix(0.747984, 0, 0, 0.747984, 0.00180259, 0.288986)" fill="none" stroke-linejoin="miter" d="M 19.001804 0.00010165 L 351.463261 0.00010165 C 356.50285 0.00010165 361.333545 2.00027 364.900425 5.567151 C 368.462083 9.128809 370.462252 13.959503 370.462252 18.999093 L 370.462252 514.81114 C 370.462252 519.850729 368.462083 524.686646 364.900425 528.248304 C 361.333545 531.809962 356.50285 533.810131 351.463261 533.810131 L 19.001804 533.810131 C 13.962214 533.810131 9.126297 531.809962 5.564639 528.248304 C 2.002981 524.686646 -0.00240993 519.850729 -0.00240993 514.81114 L -0.00240993 18.999093 C -0.00240993 13.959503 2.002981 9.128809 5.564639 5.567151 C 9.126297 2.00027 13.962214 0.00010165 19.001804 0.00010165 Z M 19.001804 0.00010165 " stroke="#1e2f56" stroke-width="8" stroke-opacity="1" stroke-miterlimit="4"/></g></g><g clip-path="url(#68af2269f2)"><path fill="#dd2e44" d="M 139.984375 198.960938 C 139.070312 200.234375 137.601562 200.234375 136.6875 198.960938 L 90.515625 134.167969 C 89.605469 132.890625 89.605469 130.820312 90.515625 129.542969 L 136.6875 64.75 C 137.601562 63.472656 139.070312 63.472656 139.984375 64.75 L 186.160156 129.542969 C 187.066406 130.820312 187.066406 132.890625 186.160156 134.167969 Z M 139.984375 198.960938 " fill-opacity="1" fill-rule="nonzero"/></g><g fill="#000000" fill-opacity="1"><g transform="translate(73.855695, 317.526568)"><g><path d="M 1.5625 -18.125 C 1.5625 -23.3125 1.96875 -27.289062 2.78125 -30.0625 C 3.59375 -32.832031 4.882812 -34.769531 6.65625 -35.875 C 8.4375 -36.976562 11.003906 -37.53125 14.359375 -37.53125 C 17.722656 -37.53125 20.289062 -36.976562 22.0625 -35.875 C 23.84375 -34.769531 25.128906 -32.835938 25.921875 -30.078125 C 26.722656 -27.328125 27.125 -23.34375 27.125 -18.125 C 27.125 -10.988281 26.210938 -6.050781 24.390625 -3.3125 C 22.566406 -0.582031 19.226562 0.78125 14.375 0.78125 C 9.519531 0.78125 6.171875 -0.582031 4.328125 -3.3125 C 2.484375 -6.050781 1.5625 -10.988281 1.5625 -18.125 Z M 9.71875 -27.25 C 9.53125 -26.03125 9.414062 -24.789062 9.375 -23.53125 C 9.34375 -22.28125 9.328125 -20.15625 9.328125 -17.15625 C 9.328125 -14.15625 9.425781 -11.644531 9.625 -9.625 C 9.820312 -7.601562 10.082031 -6.273438 10.40625 -5.640625 C 10.738281 -5.003906 11.179688 -4.6875 11.734375 -4.6875 C 14.597656 -4.6875 16.488281 -4.984375 17.40625 -5.578125 C 17.695312 -5.796875 17.992188 -6.164062 18.296875 -6.6875 C 18.609375 -7.21875 18.828125 -7.757812 18.953125 -8.3125 C 19.085938 -8.863281 19.207031 -9.675781 19.3125 -10.75 C 19.4375 -12.15625 19.5 -14.671875 19.5 -18.296875 C 19.5 -21.929688 19.410156 -24.800781 19.234375 -26.90625 C 19.054688 -29.007812 18.796875 -30.441406 18.453125 -31.203125 C 18.109375 -31.972656 17.660156 -32.359375 17.109375 -32.359375 C 15.804688 -32.359375 14.753906 -32.300781 13.953125 -32.1875 C 13.148438 -32.070312 12.441406 -31.789062 11.828125 -31.34375 C 11.210938 -30.90625 10.753906 -30.414062 10.453125 -29.875 C 10.160156 -29.34375 9.914062 -28.46875 9.71875 -27.25 Z M 25.125 6.5 C 25.09375 7.539062 24.835938 8.238281 24.359375 8.59375 C 23.890625 8.957031 22.921875 9.140625 21.453125 9.140625 C 19.984375 9.140625 17.53125 8.957031 14.09375 8.59375 C 10.65625 8.238281 8.023438 8.0625 6.203125 8.0625 L 5.421875 5.671875 C 5.453125 4.523438 5.757812 3.75 6.34375 3.34375 C 6.9375 2.9375 7.910156 2.734375 9.265625 2.734375 C 10.617188 2.734375 12.945312 2.894531 16.25 3.21875 C 19.5625 3.550781 22.113281 3.71875 23.90625 3.71875 Z M 25.125 6.5 "/></g></g></g><g fill="#000000" fill-opacity="1"><g transform="translate(102.633325, 317.526568)"><g><path d="M 17.9375 -35.28125 C 17.9375 -36.195312 18.128906 -36.800781 18.515625 -37.09375 C 18.910156 -37.382812 19.726562 -37.53125 20.96875 -37.53125 C 22.207031 -37.53125 23.0625 -37.332031 23.53125 -36.9375 C 24 -36.550781 24.253906 -35.609375 24.296875 -34.109375 L 24.875 -20.96875 C 24.875 -20.476562 24.875 -19.988281 24.875 -19.5 C 24.875 -14.445312 24.539062 -10.4375 23.875 -7.46875 C 23.207031 -4.507812 22.066406 -2.394531 20.453125 -1.125 C 18.835938 0.144531 16.53125 0.78125 13.53125 0.78125 C 9.164062 0.78125 6.148438 -0.582031 4.484375 -3.3125 C 2.828125 -6.050781 2 -10.972656 2 -18.078125 L 2 -34.21875 C 2 -35.613281 2.203125 -36.515625 2.609375 -36.921875 C 3.015625 -37.328125 3.851562 -37.53125 5.125 -37.53125 C 6.394531 -37.53125 7.257812 -37.3125 7.71875 -36.875 C 8.175781 -36.4375 8.4375 -35.382812 8.5 -33.71875 L 9.1875 -21.0625 C 9.1875 -12.820312 9.515625 -7.921875 10.171875 -6.359375 C 10.429688 -5.671875 10.804688 -5.328125 11.296875 -5.328125 C 12.429688 -5.328125 13.304688 -5.347656 13.921875 -5.390625 C 14.546875 -5.441406 15.148438 -5.640625 15.734375 -5.984375 C 16.328125 -6.328125 16.734375 -6.726562 16.953125 -7.1875 C 17.179688 -7.644531 17.394531 -8.410156 17.59375 -9.484375 C 17.820312 -10.984375 17.9375 -13.847656 17.9375 -18.078125 Z M 17.9375 -35.28125 "/></g></g></g><g fill="#000000" fill-opacity="1"><g transform="translate(129.505467, 317.526568)"><g><path d="M 18.46875 -22.234375 C 19.78125 -22.234375 20.4375 -21.648438 20.4375 -20.484375 C 20.4375 -18.878906 20.335938 -17.785156 20.140625 -17.203125 C 19.941406 -16.617188 19.4375 -16.328125 18.625 -16.328125 L 9.046875 -16.328125 L 9.046875 -5.90625 L 20.328125 -5.90625 C 21.109375 -5.875 21.644531 -5.71875 21.9375 -5.4375 C 22.238281 -5.164062 22.390625 -4.753906 22.390625 -4.203125 C 22.390625 -2.609375 22.238281 -1.507812 21.9375 -0.90625 C 21.644531 -0.300781 21.0625 0 20.1875 0 L 2.984375 0 L 2.203125 -0.78125 L 2.203125 -36.75 L 19.546875 -36.75 C 20.953125 -36.71875 21.65625 -36.195312 21.65625 -35.1875 C 21.625 -34.3125 21.570312 -33.617188 21.5 -33.109375 C 21.4375 -32.609375 21.234375 -32.113281 20.890625 -31.625 C 20.546875 -31.132812 20.050781 -30.890625 19.40625 -30.890625 L 8.5 -30.890625 L 9.046875 -22.234375 Z M 18.46875 -22.234375 "/></g></g></g><g fill="#000000" fill-opacity="1"><g transform="translate(153.1041, 317.526568)"><g><path d="M 18.46875 -22.234375 C 19.78125 -22.234375 20.4375 -21.648438 20.4375 -20.484375 C 20.4375 -18.878906 20.335938 -17.785156 20.140625 -17.203125 C 19.941406 -16.617188 19.4375 -16.328125 18.625 -16.328125 L 9.046875 -16.328125 L 9.046875 -5.90625 L 20.328125 -5.90625 C 21.109375 -5.875 21.644531 -5.71875 21.9375 -5.4375 C 22.238281 -5.164062 22.390625 -4.753906 22.390625 -4.203125 C 22.390625 -2.609375 22.238281 -1.507812 21.9375 -0.90625 C 21.644531 -0.300781 21.0625 0 20.1875 0 L 2.984375 0 L 2.203125 -0.78125 L 2.203125 -36.75 L 19.546875 -36.75 C 20.953125 -36.71875 21.65625 -36.195312 21.65625 -35.1875 C 21.625 -34.3125 21.570312 -33.617188 21.5 -33.109375 C 21.4375 -32.609375 21.234375 -32.113281 20.890625 -31.625 C 20.546875 -31.132812 20.050781 -30.890625 19.40625 -30.890625 L 8.5 -30.890625 L 9.046875 -22.234375 Z M 18.46875 -22.234375 "/></g></g></g><g fill="#000000" fill-opacity="1"><g transform="translate(176.702733, 317.526568)"><g><path d="M 2.203125 -1.171875 L 2.203125 -35.734375 C 2.203125 -36.929688 3.375 -37.53125 5.71875 -37.53125 C 6.207031 -37.53125 6.585938 -37.515625 6.859375 -37.484375 C 7.140625 -37.453125 7.488281 -37.296875 7.90625 -37.015625 C 8.332031 -36.742188 8.710938 -36.347656 9.046875 -35.828125 L 17.796875 -15.296875 L 17.5 -35.78125 C 17.5 -36.945312 18.671875 -37.53125 21.015625 -37.53125 C 21.992188 -37.53125 22.660156 -37.414062 23.015625 -37.1875 C 23.378906 -36.96875 23.578125 -36.5 23.609375 -35.78125 L 24.390625 -21.0625 L 24.390625 -1.03125 C 24.390625 -0.476562 24.375 -0.101562 24.34375 0.09375 C 24.207031 0.550781 23.570312 0.78125 22.4375 0.78125 C 20.3125 0.78125 19.039062 0.175781 18.625 -1.03125 L 9 -21.3125 L 9.046875 -1.078125 C 9.046875 -0.492188 9.03125 -0.101562 9 0.09375 C 8.863281 0.550781 8.226562 0.78125 7.09375 0.78125 C 3.832031 0.78125 2.203125 0.128906 2.203125 -1.171875 Z M 2.203125 -1.171875 "/></g></g></g></svg>