<svg xmlns="http://www.w3.org/2000/svg" xmlns:xlink="http://www.w3.org/1999/xlink" width="371" zoomAndPan="magnify" viewBox="0 0 278.25 400.499996" height="534" preserveAspectRatio="xMidYMid meet" version="1.0"><defs><g/><clipPath id="b6013bbe42"><path d="M 0 0.289062 L 277.109375 0.289062 L 277.109375 399.710938 L 0 399.710938 Z M 0 0.289062 " clip-rule="nonzero"/></clipPath><clipPath id="bc63807296"><path d="M 14.210938 0.289062 L 262.894531 0.289062 C 266.664062 0.289062 270.28125 1.785156 272.945312 4.453125 C 275.609375 7.117188 277.109375 10.730469 277.109375 14.5 L 277.109375 385.371094 C 277.109375 389.140625 275.609375 392.753906 272.945312 395.417969 C 270.28125 398.085938 266.664062 399.582031 262.894531 399.582031 L 14.210938 399.582031 C 10.441406 399.582031 6.828125 398.085938 4.164062 395.417969 C 1.496094 392.753906 0 389.140625 0 385.371094 L 0 14.5 C 0 10.730469 1.496094 7.117188 4.164062 4.453125 C 6.828125 1.785156 10.441406 0.289062 14.210938 0.289062 Z M 14.210938 0.289062 " clip-rule="nonzero"/></clipPath><clipPath id="84f285bc4a"><path d="M 0 0.289062 L 276.753906 0.289062 L 276.753906 399.710938 L 0 399.710938 Z M 0 0.289062 " clip-rule="nonzero"/></clipPath><clipPath id="27ce268f38"><path d="M 14.214844 0.289062 L 262.890625 0.289062 C 266.660156 0.289062 270.273438 1.785156 272.941406 4.453125 C 275.605469 7.117188 277.101562 10.730469 277.101562 14.5 L 277.101562 385.359375 C 277.101562 389.128906 275.605469 392.746094 272.941406 395.410156 C 270.273438 398.074219 266.660156 399.570312 262.890625 399.570312 L 14.214844 399.570312 C 10.445312 399.570312 6.828125 398.074219 4.164062 395.410156 C 1.5 392.746094 0 389.128906 0 385.359375 L 0 14.5 C 0 10.730469 1.5 7.117188 4.164062 4.453125 C 6.828125 1.785156 10.445312 0.289062 14.214844 0.289062 Z M 14.214844 0.289062 " clip-rule="nonzero"/></clipPath><clipPath id="38b326cdf7"><path d="M 74.265625 79 L 202.917969 79 L 202.917969 200 L 74.265625 200 Z M 74.265625 79 " clip-rule="nonzero"/></clipPath></defs><g clip-path="url(#b6013bbe42)"><g clip-path="url(#bc63807296)"><path fill="#fdfffc" d="M 0 0.289062 L 277.109375 0.289062 L 277.109375 399.714844 L 0 399.714844 Z M 0 0.289062 " fill-opacity="1" fill-rule="nonzero"/></g></g><g clip-path="url(#84f285bc4a)"><g clip-path="url(#27ce268f38)"><path stroke-linecap="butt" transform="matrix(0.747984, 0, 0, 0.747984, 0.00180259, 0.288986)" fill="none" stroke-linejoin="miter" d="M 19.001804 0.00010165 L 351.463261 0.00010165 C 356.50285 0.00010165 361.333545 2.00027 364.900425 5.567151 C 368.462083 9.128809 370.462252 13.959503 370.462252 18.999093 L 370.462252 514.81114 C 370.462252 519.850729 368.462083 524.686646 364.900425 528.248304 C 361.333545 531.809962 356.50285 533.810131 351.463261 533.810131 L 19.001804 533.810131 C 13.962214 533.810131 9.126297 531.809962 5.564639 528.248304 C 2.002981 524.686646 -0.00240993 519.850729 -0.00240993 514.81114 L -0.00240993 18.999093 C -0.00240993 13.959503 2.002981 9.128809 5.564639 5.567151 C 9.126297 2.00027 13.962214 0.00010165 19.001804 0.00010165 Z M 19.001804 0.00010165 " stroke="#1e2f56" stroke-width="8" stroke-opacity="1" stroke-miterlimit="4"/></g></g><g clip-path="url(#38b326cdf7)"><path fill="#dd2e44" d="M 74.132812 112.332031 C 74.132812 76.777344 123.269531 63.601562 138.390625 104.757812 C 153.507812 63.597656 202.648438 76.773438 202.648438 112.332031 C 202.648438 150.964844 138.390625 199.949219 138.390625 199.949219 C 138.390625 199.949219 74.132812 150.964844 74.132812 112.332031 Z M 74.132812 112.332031 " fill-opacity="1" fill-rule="nonzero"/></g><g fill="#000000" fill-opacity="1"><g transform="translate(121.640126, 313.072926)"><g><path d="M 31.609375 -15.421875 C 31.609375 -10.367188 30.40625 -6.347656 28 -3.359375 C 25.59375 -0.378906 21.882812 1.109375 16.875 1.109375 C 7.101562 1.109375 2.21875 -4.398438 2.21875 -15.421875 C 2.21875 -17.597656 2.796875 -19.804688 3.953125 -22.046875 C 5.117188 -24.296875 6.671875 -26.207031 8.609375 -27.78125 C 7.171875 -29.3125 6 -31.082031 5.09375 -33.09375 C 4.195312 -35.113281 3.75 -37.097656 3.75 -39.046875 C 3.75 -43.210938 4.828125 -46.660156 6.984375 -49.390625 C 9.140625 -52.117188 12.347656 -53.484375 16.609375 -53.484375 C 25.585938 -53.484375 30.078125 -48.671875 30.078125 -39.046875 C 30.078125 -35.015625 28.429688 -31.257812 25.140625 -27.78125 C 27.085938 -26.257812 28.648438 -24.363281 29.828125 -22.09375 C 31.015625 -19.820312 31.609375 -17.597656 31.609375 -15.421875 Z M 13.0625 -40.078125 C 13.0625 -36.929688 14.332031 -34.289062 16.875 -32.15625 C 19.519531 -34.289062 20.84375 -36.929688 20.84375 -40.078125 C 20.84375 -42.117188 20.457031 -43.71875 19.6875 -44.875 C 18.925781 -46.03125 18 -46.609375 16.90625 -46.609375 C 15.820312 -46.609375 14.910156 -46.03125 14.171875 -44.875 C 13.429688 -43.71875 13.0625 -42.117188 13.0625 -40.078125 Z M 16.875 -22.859375 C 15.113281 -21.367188 13.828125 -20.007812 13.015625 -18.78125 C 12.210938 -17.5625 11.8125 -16 11.8125 -14.09375 C 11.8125 -12.195312 12.238281 -10.484375 13.09375 -8.953125 C 13.945312 -7.429688 15.21875 -6.671875 16.90625 -6.671875 C 18.601562 -6.671875 19.878906 -7.429688 20.734375 -8.953125 C 21.585938 -10.484375 22.015625 -12.195312 22.015625 -14.09375 C 22.015625 -16 21.597656 -17.5625 20.765625 -18.78125 C 19.929688 -20.007812 18.632812 -21.367188 16.875 -22.859375 Z M 16.875 -22.859375 "/></g></g></g></svg>