<svg xmlns="http://www.w3.org/2000/svg" xmlns:xlink="http://www.w3.org/1999/xlink" width="371" zoomAndPan="magnify" viewBox="0 0 278.25 400.499996" height="534" preserveAspectRatio="xMidYMid meet" version="1.0"><defs><g/><clipPath id="bf22dc6101"><path d="M 0 0.289062 L 277.109375 0.289062 L 277.109375 399.710938 L 0 399.710938 Z M 0 0.289062 " clip-rule="nonzero"/></clipPath><clipPath id="c1cc5cb275"><path d="M 14.210938 0.289062 L 262.894531 0.289062 C 266.664062 0.289062 270.28125 1.785156 272.945312 4.453125 C 275.609375 7.117188 277.109375 10.730469 277.109375 14.5 L 277.109375 385.371094 C 277.109375 389.140625 275.609375 392.753906 272.945312 395.417969 C 270.28125 398.085938 266.664062 399.582031 262.894531 399.582031 L 14.210938 399.582031 C 10.441406 399.582031 6.828125 398.085938 4.164062 395.417969 C 1.496094 392.753906 0 389.140625 0 385.371094 L 0 14.5 C 0 10.730469 1.496094 7.117188 4.164062 4.453125 C 6.828125 1.785156 10.441406 0.289062 14.210938 0.289062 Z M 14.210938 0.289062 " clip-rule="nonzero"/></clipPath><clipPath id="837ddc90af"><path d="M 0 0.289062 L 276.753906 0.289062 L 276.753906 399.710938 L 0 399.710938 Z M 0 0.289062 " clip-rule="nonzero"/></clipPath><clipPath id="4489e1b582"><path d="M 14.214844 0.289062 L 262.890625 0.289062 C 266.660156 0.289062 270.273438 1.785156 272.941406 4.453125 C 275.605469 7.117188 277.101562 10.730469 277.101562 14.5 L 277.101562 385.359375 C 277.101562 389.128906 275.605469 392.746094 272.941406 395.410156 C 270.273438 398.074219 266.660156 399.570312 262.890625 399.570312 L 14.214844 399.570312 C 10.445312 399.570312 6.828125 398.074219 4.164062 395.410156 C 1.5 392.746094 0 389.128906 0 385.359375 L 0 14.5 C 0 10.730469 1.5 7.117188 4.164062 4.453125 C 6.828125 1.785156 10.445312 0.289062 14.214844 0.289062 Z M 14.214844 0.289062 " clip-rule="nonzero"/></clipPath><clipPath id="21ae6fece0"><path d="M 80 66.875 L 197 66.875 L 197 196.277344 L 80 196.277344 Z M 80 66.875 " clip-rule="nonzero"/></clipPath></defs><g clip-path="url(#bf22dc6101)"><g clip-path="url(#c1cc5cb275)"><path fill="#fdfffc" d="M 0 0.289062 L 277.109375 0.289062 L 277.109375 399.714844 L 0 399.714844 Z M 0 0.289062 " fill-opacity="1" fill-rule="nonzero"/></g></g><g clip-path="url(#837ddc90af)"><g clip-path="url(#4489e1b582)"><path stroke-linecap="butt" transform="matrix(0.747984, 0, 0, 0.747984, 0.00180259, 0.288986)" fill="none" stroke-linejoin="miter" d="M 19.001804 0.00010165 L 351.463261 0.00010165 C 356.50285 0.00010165 361.333545 2.00027 364.900425 5.567151 C 368.462083 9.128809 370.462252 13.959503 370.462252 18.999093 L 370.462252 514.81114 C 370.462252 519.850729 368.462083 524.686646 364.900425 528.248304 C 361.333545 531.809962 356.50285 533.810131 351.463261 533.810131 L 19.001804 533.810131 C 13.962214 533.810131 9.126297 531.809962 5.564639 528.248304 C 2.002981 524.686646 -0.00240993 519.850729 -0.00240993 514.81114 L -0.00240993 18.999093 C -0.00240993 13.959503 2.002981 9.128809 5.564639 5.567151 C 9.126297 2.00027 13.962214 0.00010165 19.001804 0.00010165 Z M 19.001804 0.00010165 " stroke="#1e2f56" stroke-width="8" stroke-opacity="1" stroke-miterlimit="4"/></g></g><g clip-path="url(#21ae6fece0)"><path fill="#000000" d="M 106.023438 196.277344 C 129.417969 191.09375 131.9375 177.429688 133.703125 152.300781 C 129.636719 159.011719 122.246094 163.964844 110.179688 163.925781 C 90.347656 163.855469 77.0625 152.359375 81.789062 127.53125 C 86.554688 102.5 122.246094 92.796875 138.46875 66.875 C 154.691406 92.796875 190.382812 102.5 195.148438 127.53125 C 199.875 152.359375 187.136719 163.855469 166.757812 163.925781 C 154.691406 163.964844 147.300781 159.011719 143.234375 152.300781 C 145 177.425781 147.515625 191.089844 170.914062 196.277344 Z M 106.023438 196.277344 " fill-opacity="1" fill-rule="nonzero"/></g><g fill="#000000" fill-opacity="1"><g transform="translate(122.752636, 313.072926)"><g><path d="M 2.296875 -17.359375 C 2.296875 -21.023438 2.734375 -25.179688 3.609375 -29.828125 C 4.492188 -34.484375 5.375 -38.304688 6.25 -41.296875 C 7.132812 -44.285156 8.382812 -48.304688 10 -53.359375 L 18.40625 -51.265625 L 19.515625 -50.15625 L 18.125 -46.890625 C 16.226562 -43.140625 15.023438 -39.179688 14.515625 -35.015625 L 16.1875 -35.703125 C 19.84375 -35.703125 22.628906 -35.21875 24.546875 -34.25 C 26.472656 -33.28125 27.875 -31.484375 28.75 -28.859375 C 29.632812 -26.242188 30.078125 -22.410156 30.078125 -17.359375 C 30.078125 -10.421875 29.082031 -5.609375 27.09375 -2.921875 C 25.101562 -0.234375 21.46875 1.109375 16.1875 1.109375 C 10.90625 1.109375 7.269531 -0.234375 5.28125 -2.921875 C 3.289062 -5.609375 2.296875 -10.421875 2.296875 -17.359375 Z M 11.734375 -17.359375 C 11.734375 -9.585938 12.476562 -5.703125 13.96875 -5.703125 C 16 -5.703125 17.503906 -6.023438 18.484375 -6.671875 C 18.992188 -7.035156 19.335938 -7.707031 19.515625 -8.6875 C 19.890625 -10.625 20.078125 -13.515625 20.078125 -17.359375 C 20.078125 -25.140625 19.335938 -29.03125 17.859375 -29.03125 C 15.078125 -29.03125 13.359375 -28.378906 12.703125 -27.078125 C 12.054688 -25.785156 11.734375 -22.546875 11.734375 -17.359375 Z M 11.734375 -17.359375 "/></g></g></g></svg>