<svg xmlns="http://www.w3.org/2000/svg" xmlns:xlink="http://www.w3.org/1999/xlink" width="371" zoomAndPan="magnify" viewBox="0 0 278.25 400.499996" height="534" preserveAspectRatio="xMidYMid meet" version="1.0"><defs><g/><clipPath id="76aff6e3dc"><path d="M 0 0.289062 L 277.109375 0.289062 L 277.109375 399.710938 L 0 399.710938 Z M 0 0.289062 " clip-rule="nonzero"/></clipPath><clipPath id="8f49de78b6"><path d="M 14.210938 0.289062 L 262.894531 0.289062 C 266.664062 0.289062 270.28125 1.785156 272.945312 4.453125 C 275.609375 7.117188 277.109375 10.730469 277.109375 14.5 L 277.109375 385.371094 C 277.109375 389.140625 275.609375 392.753906 272.945312 395.417969 C 270.28125 398.085938 266.664062 399.582031 262.894531 399.582031 L 14.210938 399.582031 C 10.441406 399.582031 6.828125 398.085938 4.164062 395.417969 C 1.496094 392.753906 0 389.140625 0 385.371094 L 0 14.5 C 0 10.730469 1.496094 7.117188 4.164062 4.453125 C 6.828125 1.785156 10.441406 0.289062 14.210938 0.289062 Z M 14.210938 0.289062 " clip-rule="nonzero"/></clipPath><clipPath id="471cd142c1"><path d="M 0 0.289062 L 276.753906 0.289062 L 276.753906 399.710938 L 0 399.710938 Z M 0 0.289062 " clip-rule="nonzero"/></clipPath><clipPath id="cf4b4fcb51"><path d="M 14.214844 0.289062 L 262.890625 0.289062 C 266.660156 0.289062 270.273438 1.785156 272.941406 4.453125 C 275.605469 7.117188 277.101562 10.730469 277.101562 14.5 L 277.101562 385.359375 C 277.101562 389.128906 275.605469 392.746094 272.941406 395.410156 C 270.273438 398.074219 266.660156 399.570312 262.890625 399.570312 L 14.214844 399.570312 C 10.445312 399.570312 6.828125 398.074219 4.164062 395.410156 C 1.5 392.746094 0 389.128906 0 385.359375 L 0 14.5 C 0 10.730469 1.5 7.117188 4.164062 4.453125 C 6.828125 1.785156 10.445312 0.289062 14.214844 0.289062 Z M 14.214844 0.289062 " clip-rule="nonzero"/></clipPath></defs><g fill="#000000" fill-opacity="1"><g transform="translate(109.620962, 191.208764)"><g><path d="M 13.359375 -21.703125 C 16.160156 -21.703125 18.335938 -20.742188 19.890625 -18.828125 C 21.441406 -16.910156 22.21875 -14.195312 22.21875 -10.6875 C 22.21875 -7.1875 21.4375 -4.460938 19.875 -2.515625 C 18.3125 -0.578125 16.140625 0.390625 13.359375 0.390625 C 11.972656 0.390625 10.703125 0.132812 9.546875 -0.375 C 8.398438 -0.894531 7.4375 -1.6875 6.65625 -2.75 L 6.421875 -2.75 L 5.75 0 L 3.421875 0 L 3.421875 -30.3125 L 6.65625 -30.3125 L 6.65625 -22.9375 C 6.65625 -21.289062 6.601562 -19.8125 6.5 -18.5 L 6.65625 -18.5 C 8.164062 -20.632812 10.398438 -21.703125 13.359375 -21.703125 Z M 12.890625 -18.984375 C 10.679688 -18.984375 9.085938 -18.347656 8.109375 -17.078125 C 7.140625 -15.816406 6.65625 -13.6875 6.65625 -10.6875 C 6.65625 -7.6875 7.15625 -5.539062 8.15625 -4.25 C 9.15625 -2.957031 10.757812 -2.3125 12.96875 -2.3125 C 14.957031 -2.3125 16.4375 -3.035156 17.40625 -4.484375 C 18.382812 -5.929688 18.875 -8.015625 18.875 -10.734375 C 18.875 -13.515625 18.382812 -15.582031 17.40625 -16.9375 C 16.4375 -18.300781 14.929688 -18.984375 12.890625 -18.984375 Z M 12.890625 -18.984375 "/></g></g></g><g fill="#000000" fill-opacity="1"><g transform="translate(134.064407, 191.208764)"><g><path d="M 12.453125 0.390625 C 9.296875 0.390625 6.800781 -0.566406 4.96875 -2.484375 C 3.144531 -4.410156 2.234375 -7.082031 2.234375 -10.5 C 2.234375 -13.9375 3.082031 -16.664062 4.78125 -18.6875 C 6.476562 -20.71875 8.753906 -21.734375 11.609375 -21.734375 C 14.285156 -21.734375 16.398438 -20.851562 17.953125 -19.09375 C 19.515625 -17.332031 20.296875 -15.015625 20.296875 -12.140625 L 20.296875 -10.09375 L 5.59375 -10.09375 C 5.65625 -7.582031 6.285156 -5.675781 7.484375 -4.375 C 8.691406 -3.082031 10.382812 -2.4375 12.5625 -2.4375 C 14.863281 -2.4375 17.132812 -2.914062 19.375 -3.875 L 19.375 -1 C 18.238281 -0.5 17.160156 -0.144531 16.140625 0.0625 C 15.117188 0.28125 13.890625 0.390625 12.453125 0.390625 Z M 11.5625 -19.03125 C 9.851562 -19.03125 8.488281 -18.46875 7.46875 -17.34375 C 6.445312 -16.226562 5.847656 -14.6875 5.671875 -12.71875 L 16.828125 -12.71875 C 16.828125 -14.757812 16.375 -16.320312 15.46875 -17.40625 C 14.5625 -18.488281 13.257812 -19.03125 11.5625 -19.03125 Z M 11.5625 -19.03125 "/></g></g></g><g fill="#000000" fill-opacity="1"><g transform="translate(156.443306, 191.208764)"><g><path d="M 6.65625 0 L 3.421875 0 L 3.421875 -30.3125 L 6.65625 -30.3125 Z M 6.65625 0 "/></g></g></g><g fill="#000000" fill-opacity="1"><g transform="translate(166.532311, 191.208764)"><g><path d="M 6.65625 0 L 3.421875 0 L 3.421875 -30.3125 L 6.65625 -30.3125 Z M 6.65625 0 "/></g></g></g><g fill="#000000" fill-opacity="1"><g transform="translate(176.621316, 191.208764)"><g><path d="M 16.5625 0 L 15.90625 -3.03125 L 15.75 -3.03125 C 14.6875 -1.695312 13.625 -0.789062 12.5625 -0.3125 C 11.507812 0.15625 10.191406 0.390625 8.609375 0.390625 C 6.492188 0.390625 4.832031 -0.148438 3.625 -1.234375 C 2.425781 -2.328125 1.828125 -3.882812 1.828125 -5.90625 C 1.828125 -10.21875 5.273438 -12.476562 12.171875 -12.6875 L 15.796875 -12.796875 L 15.796875 -14.125 C 15.796875 -15.800781 15.4375 -17.035156 14.71875 -17.828125 C 14 -18.628906 12.847656 -19.03125 11.265625 -19.03125 C 9.484375 -19.03125 7.46875 -18.484375 5.21875 -17.390625 L 4.234375 -19.875 C 5.273438 -20.4375 6.421875 -20.878906 7.671875 -21.203125 C 8.929688 -21.535156 10.191406 -21.703125 11.453125 -21.703125 C 13.992188 -21.703125 15.878906 -21.132812 17.109375 -20 C 18.335938 -18.875 18.953125 -17.0625 18.953125 -14.5625 L 18.953125 0 Z M 9.25 -2.28125 C 11.257812 -2.28125 12.835938 -2.832031 13.984375 -3.9375 C 15.140625 -5.039062 15.71875 -6.582031 15.71875 -8.5625 L 15.71875 -10.5 L 12.484375 -10.359375 C 9.910156 -10.265625 8.054688 -9.863281 6.921875 -9.15625 C 5.785156 -8.457031 5.21875 -7.359375 5.21875 -5.859375 C 5.21875 -4.691406 5.570312 -3.800781 6.28125 -3.1875 C 6.988281 -2.582031 7.976562 -2.28125 9.25 -2.28125 Z M 9.25 -2.28125 "/></g></g></g><g fill="#000000" fill-opacity="1"><g transform="translate(198.805446, 191.208764)"><g><path d="M 17.078125 0 L 1.59375 0 L 1.59375 -2.203125 L 13.25 -18.828125 L 2.3125 -18.828125 L 2.3125 -21.34375 L 16.796875 -21.34375 L 16.796875 -18.828125 L 5.296875 -2.515625 L 17.078125 -2.515625 Z M 17.078125 0 "/></g></g></g><g fill="#000000" fill-opacity="1"><g transform="translate(217.464262, 191.208764)"><g><path d="M 17.078125 0 L 1.59375 0 L 1.59375 -2.203125 L 13.25 -18.828125 L 2.3125 -18.828125 L 2.3125 -21.34375 L 16.796875 -21.34375 L 16.796875 -18.828125 L 5.296875 -2.515625 L 17.078125 -2.515625 Z M 17.078125 0 "/></g></g></g><g fill="#000000" fill-opacity="1"><g transform="translate(236.123078, 191.208764)"><g><path d="M 6.65625 0 L 3.421875 0 L 3.421875 -21.34375 L 6.65625 -21.34375 Z M 3.15625 -27.125 C 3.15625 -27.875 3.335938 -28.421875 3.703125 -28.765625 C 4.066406 -29.109375 4.519531 -29.28125 5.0625 -29.28125 C 5.582031 -29.28125 6.03125 -29.101562 6.40625 -28.75 C 6.78125 -28.394531 6.96875 -27.851562 6.96875 -27.125 C 6.96875 -26.40625 6.78125 -25.863281 6.40625 -25.5 C 6.03125 -25.144531 5.582031 -24.96875 5.0625 -24.96875 C 4.519531 -24.96875 4.066406 -25.144531 3.703125 -25.5 C 3.335938 -25.863281 3.15625 -26.40625 3.15625 -27.125 Z M 3.15625 -27.125 "/></g></g></g><g clip-path="url(#76aff6e3dc)"><g clip-path="url(#8f49de78b6)"><path fill="#fdfffc" d="M 0 0.289062 L 277.109375 0.289062 L 277.109375 399.714844 L 0 399.714844 Z M 0 0.289062 " fill-opacity="1" fill-rule="nonzero"/></g></g><g clip-path="url(#471cd142c1)"><g clip-path="url(#cf4b4fcb51)"><path stroke-linecap="butt" transform="matrix(0.747984, 0, 0, 0.747984, 0.00180259, 0.288986)" fill="none" stroke-linejoin="miter" d="M 19.001804 0.00010165 L 351.463261 0.00010165 C 356.50285 0.00010165 361.333545 2.00027 364.900425 5.567151 C 368.462083 9.128809 370.462252 13.959503 370.462252 18.999093 L 370.462252 514.81114 C 370.462252 519.850729 368.462083 524.686646 364.900425 528.248304 C 361.333545 531.809962 356.50285 533.810131 351.463261 533.810131 L 19.001804 533.810131 C 13.962214 533.810131 9.126297 531.809962 5.564639 528.248304 C 2.002981 524.686646 -0.00240993 519.850729 -0.00240993 514.81114 L -0.00240993 18.999093 C -0.00240993 13.959503 2.002981 9.128809 5.564639 5.567151 C 9.126297 2.00027 13.962214 0.00010165 19.001804 0.00010165 Z M 19.001804 0.00010165 " stroke="#1e2f56" stroke-width="8" stroke-opacity="1" stroke-miterlimit="4"/></g></g></svg>